G04 #@! TF.GenerationSoftware,KiCad,Pcbnew,9.0.3*
G04 #@! TF.CreationDate,2025-09-05T20:04:58+02:00*
G04 #@! TF.ProjectId,SwitchHolderAdapter,53776974-6368-4486-9f6c-646572416461,rev?*
G04 #@! TF.SameCoordinates,Original*
G04 #@! TF.FileFunction,Copper,L1,Top*
G04 #@! TF.FilePolarity,Positive*
%FSLAX46Y46*%
G04 Gerber Fmt 4.6, Leading zero omitted, Abs format (unit mm)*
G04 Created by KiCad (PCBNEW 9.0.3) date 2025-09-05 20:04:58*
%MOMM*%
%LPD*%
G01*
G04 APERTURE LIST*
G04 Aperture macros list*
%AMRoundRect*
0 Rectangle with rounded corners*
0 $1 Rounding radius*
0 $2 $3 $4 $5 $6 $7 $8 $9 X,Y pos of 4 corners*
0 Add a 4 corners polygon primitive as box body*
4,1,4,$2,$3,$4,$5,$6,$7,$8,$9,$2,$3,0*
0 Add four circle primitives for the rounded corners*
1,1,$1+$1,$2,$3*
1,1,$1+$1,$4,$5*
1,1,$1+$1,$6,$7*
1,1,$1+$1,$8,$9*
0 Add four rect primitives between the rounded corners*
20,1,$1+$1,$2,$3,$4,$5,0*
20,1,$1+$1,$4,$5,$6,$7,0*
20,1,$1+$1,$6,$7,$8,$9,0*
20,1,$1+$1,$8,$9,$2,$3,0*%
G04 Aperture macros list end*
G04 #@! TA.AperFunction,SMDPad,CuDef*
%ADD10RoundRect,0.135000X-0.185000X0.135000X-0.185000X-0.135000X0.185000X-0.135000X0.185000X0.135000X0*%
G04 #@! TD*
G04 #@! TA.AperFunction,SMDPad,CuDef*
%ADD11RoundRect,0.147500X-0.172500X0.147500X-0.172500X-0.147500X0.172500X-0.147500X0.172500X0.147500X0*%
G04 #@! TD*
G04 #@! TA.AperFunction,SMDPad,CuDef*
%ADD12RoundRect,0.175000X-0.425000X0.175000X-0.425000X-0.175000X0.425000X-0.175000X0.425000X0.175000X0*%
G04 #@! TD*
G04 #@! TA.AperFunction,SMDPad,CuDef*
%ADD13RoundRect,0.190000X0.410000X-0.190000X0.410000X0.190000X-0.410000X0.190000X-0.410000X-0.190000X0*%
G04 #@! TD*
G04 #@! TA.AperFunction,SMDPad,CuDef*
%ADD14RoundRect,0.200000X0.400000X-0.200000X0.400000X0.200000X-0.400000X0.200000X-0.400000X-0.200000X0*%
G04 #@! TD*
G04 #@! TA.AperFunction,SMDPad,CuDef*
%ADD15RoundRect,0.175000X0.425000X-0.175000X0.425000X0.175000X-0.425000X0.175000X-0.425000X-0.175000X0*%
G04 #@! TD*
G04 #@! TA.AperFunction,SMDPad,CuDef*
%ADD16RoundRect,0.190000X-0.410000X0.190000X-0.410000X-0.190000X0.410000X-0.190000X0.410000X0.190000X0*%
G04 #@! TD*
G04 #@! TA.AperFunction,SMDPad,CuDef*
%ADD17RoundRect,0.200000X-0.400000X0.200000X-0.400000X-0.200000X0.400000X-0.200000X0.400000X0.200000X0*%
G04 #@! TD*
G04 #@! TA.AperFunction,SMDPad,CuDef*
%ADD18RoundRect,0.250000X-0.425000X0.650000X-0.425000X-0.650000X0.425000X-0.650000X0.425000X0.650000X0*%
G04 #@! TD*
G04 #@! TA.AperFunction,SMDPad,CuDef*
%ADD19RoundRect,0.250000X-0.500000X0.650000X-0.500000X-0.650000X0.500000X-0.650000X0.500000X0.650000X0*%
G04 #@! TD*
G04 #@! TA.AperFunction,SMDPad,CuDef*
%ADD20RoundRect,0.325000X0.325000X1.175000X-0.325000X1.175000X-0.325000X-1.175000X0.325000X-1.175000X0*%
G04 #@! TD*
G04 #@! TA.AperFunction,HeatsinkPad*
%ADD21O,1.200000X2.900000*%
G04 #@! TD*
G04 #@! TA.AperFunction,SMDPad,CuDef*
%ADD22RoundRect,0.250000X0.425000X-0.650000X0.425000X0.650000X-0.425000X0.650000X-0.425000X-0.650000X0*%
G04 #@! TD*
G04 #@! TA.AperFunction,SMDPad,CuDef*
%ADD23RoundRect,0.250000X0.500000X-0.650000X0.500000X0.650000X-0.500000X0.650000X-0.500000X-0.650000X0*%
G04 #@! TD*
G04 #@! TA.AperFunction,ViaPad*
%ADD24C,0.600000*%
G04 #@! TD*
G04 #@! TA.AperFunction,Conductor*
%ADD25C,0.500000*%
G04 #@! TD*
G04 #@! TA.AperFunction,Conductor*
%ADD26C,0.200000*%
G04 #@! TD*
G04 APERTURE END LIST*
D10*
X153000000Y-86740000D03*
X153000000Y-87760000D03*
D11*
X153000000Y-84515000D03*
X153000000Y-85485000D03*
D12*
X143135000Y-94875000D03*
D13*
X143135000Y-96895000D03*
D14*
X143135000Y-98125000D03*
D15*
X143135000Y-95875000D03*
D16*
X143135000Y-93855000D03*
D17*
X143135000Y-92625000D03*
D18*
X143080000Y-90250000D03*
D19*
X139500000Y-90250000D03*
D18*
X143080000Y-100500000D03*
D19*
X139500000Y-100500000D03*
D20*
X148000000Y-86240000D03*
X145500000Y-86240000D03*
X143500000Y-86240000D03*
X141000000Y-86240000D03*
D21*
X150900000Y-82540000D03*
X138100000Y-82540000D03*
D15*
X147267500Y-95875000D03*
D16*
X147267500Y-93855000D03*
D17*
X147267500Y-92625000D03*
D12*
X147267500Y-94875000D03*
D13*
X147267500Y-96895000D03*
D14*
X147267500Y-98125000D03*
D22*
X147322500Y-100500000D03*
D23*
X150902500Y-100500000D03*
D22*
X147322500Y-90250000D03*
D23*
X150902500Y-90250000D03*
D24*
X151500000Y-88000000D03*
X150000000Y-86500000D03*
X144750000Y-95250000D03*
D25*
X144750000Y-93855000D02*
X147267500Y-93855000D01*
X144750000Y-96895000D02*
X147267500Y-96895000D01*
D26*
X153000000Y-87760000D02*
X151740000Y-87760000D01*
X151740000Y-87760000D02*
X151500000Y-88000000D01*
X153000000Y-86740000D02*
X153000000Y-85485000D01*
D25*
X144750000Y-93855000D02*
X144750000Y-95250000D01*
X148260000Y-86500000D02*
X148000000Y-86240000D01*
X150000000Y-86500000D02*
X148260000Y-86500000D01*
X144750000Y-96895000D02*
X144750000Y-95250000D01*
X143135000Y-96895000D02*
X144750000Y-96895000D01*
X143135000Y-93855000D02*
X144750000Y-93855000D01*
G04 #@! TA.AperFunction,Conductor*
G36*
X151754418Y-74000816D02*
G01*
X151954561Y-74015130D01*
X151972063Y-74017647D01*
X152163797Y-74059355D01*
X152180755Y-74064334D01*
X152364609Y-74132909D01*
X152380701Y-74140259D01*
X152552904Y-74234288D01*
X152567784Y-74243849D01*
X152724867Y-74361441D01*
X152738237Y-74373027D01*
X152876972Y-74511762D01*
X152888558Y-74525132D01*
X153006146Y-74682210D01*
X153015711Y-74697095D01*
X153109740Y-74869298D01*
X153117090Y-74885390D01*
X153185662Y-75069236D01*
X153190646Y-75086212D01*
X153232351Y-75277931D01*
X153234869Y-75295442D01*
X153249184Y-75495580D01*
X153249500Y-75504427D01*
X153249500Y-84391000D01*
X153229815Y-84458039D01*
X153177011Y-84503794D01*
X153125500Y-84515000D01*
X153000000Y-84515000D01*
X153000000Y-84565500D01*
X152980315Y-84632539D01*
X152927511Y-84678294D01*
X152876000Y-84689500D01*
X152762052Y-84689500D01*
X152725326Y-84692390D01*
X152725320Y-84692391D01*
X152568107Y-84738066D01*
X152568104Y-84738068D01*
X152551764Y-84747732D01*
X152488643Y-84765000D01*
X152183007Y-84765000D01*
X152183005Y-84765001D01*
X152228529Y-84921691D01*
X152228534Y-84921704D01*
X152237220Y-84936392D01*
X152254400Y-85004116D01*
X152237221Y-85062625D01*
X152228068Y-85078102D01*
X152228068Y-85078103D01*
X152182391Y-85235320D01*
X152182390Y-85235326D01*
X152179500Y-85272052D01*
X152179500Y-85697947D01*
X152182390Y-85734673D01*
X152182391Y-85734679D01*
X152228066Y-85891892D01*
X152228068Y-85891895D01*
X152311408Y-86032817D01*
X152311414Y-86032825D01*
X152312246Y-86033657D01*
X152312689Y-86034469D01*
X152316193Y-86038986D01*
X152315464Y-86039551D01*
X152345731Y-86094980D01*
X152340747Y-86164672D01*
X152312251Y-86209014D01*
X152308872Y-86212393D01*
X152308863Y-86212404D01*
X152227131Y-86350606D01*
X152227129Y-86350611D01*
X152182335Y-86504791D01*
X152182334Y-86504797D01*
X152179500Y-86540811D01*
X152179500Y-86939169D01*
X152179501Y-86939191D01*
X152182335Y-86975203D01*
X152189802Y-87000904D01*
X152189603Y-87070773D01*
X152151662Y-87129444D01*
X152088024Y-87158288D01*
X152070726Y-87159500D01*
X151660942Y-87159500D01*
X151527427Y-87195275D01*
X151495334Y-87199500D01*
X151421155Y-87199500D01*
X151266510Y-87230261D01*
X151266498Y-87230264D01*
X151120827Y-87290602D01*
X151120814Y-87290609D01*
X150989711Y-87378210D01*
X150989707Y-87378213D01*
X150878213Y-87489707D01*
X150878210Y-87489711D01*
X150790609Y-87620814D01*
X150790602Y-87620827D01*
X150730264Y-87766498D01*
X150730261Y-87766510D01*
X150699500Y-87921153D01*
X150699500Y-88078846D01*
X150730261Y-88233489D01*
X150730264Y-88233501D01*
X150790602Y-88379172D01*
X150790609Y-88379185D01*
X150878210Y-88510288D01*
X150878213Y-88510292D01*
X150989707Y-88621786D01*
X150989715Y-88621792D01*
X151098467Y-88694458D01*
X151143273Y-88748070D01*
X151149624Y-88798638D01*
X151152500Y-88798638D01*
X151152500Y-90000000D01*
X152152499Y-90000000D01*
X152152499Y-89550028D01*
X152152498Y-89550013D01*
X152142005Y-89447302D01*
X152086858Y-89280880D01*
X152086856Y-89280875D01*
X151994815Y-89131654D01*
X151870844Y-89007683D01*
X151870840Y-89007680D01*
X151791266Y-88958598D01*
X151744541Y-88906650D01*
X151733320Y-88837688D01*
X151761163Y-88773606D01*
X151808907Y-88738501D01*
X151879179Y-88709394D01*
X152010289Y-88621789D01*
X152121789Y-88510289D01*
X152151075Y-88466459D01*
X152185053Y-88415609D01*
X152191144Y-88410518D01*
X152194442Y-88403297D01*
X152217569Y-88388433D01*
X152238665Y-88370804D01*
X152248039Y-88368852D01*
X152253220Y-88365523D01*
X152288155Y-88360500D01*
X152330404Y-88360500D01*
X152397443Y-88380185D01*
X152418085Y-88396819D01*
X152422396Y-88401130D01*
X152422400Y-88401133D01*
X152422402Y-88401135D01*
X152560607Y-88482869D01*
X152601268Y-88494682D01*
X152714791Y-88527664D01*
X152714794Y-88527664D01*
X152714796Y-88527665D01*
X152750819Y-88530500D01*
X153125500Y-88530499D01*
X153192539Y-88550183D01*
X153238294Y-88602987D01*
X153249500Y-88654499D01*
X153249500Y-99995572D01*
X153249184Y-100004419D01*
X153234869Y-100204557D01*
X153232351Y-100222068D01*
X153190646Y-100413787D01*
X153185662Y-100430763D01*
X153117090Y-100614609D01*
X153109740Y-100630701D01*
X153015711Y-100802904D01*
X153006146Y-100817789D01*
X152888558Y-100974867D01*
X152876972Y-100988237D01*
X152738237Y-101126972D01*
X152724867Y-101138558D01*
X152567789Y-101256146D01*
X152552904Y-101265711D01*
X152380701Y-101359740D01*
X152364610Y-101367089D01*
X152313323Y-101386219D01*
X152243632Y-101391205D01*
X152182308Y-101357721D01*
X152148822Y-101296398D01*
X152146630Y-101257435D01*
X152152499Y-101199986D01*
X152152500Y-101199973D01*
X152152500Y-100750000D01*
X149652501Y-100750000D01*
X149652501Y-101199986D01*
X149662994Y-101302697D01*
X149674194Y-101336496D01*
X149676596Y-101406324D01*
X149640864Y-101466366D01*
X149578344Y-101497559D01*
X149556488Y-101499500D01*
X148593511Y-101499500D01*
X148526472Y-101479815D01*
X148480717Y-101427011D01*
X148470773Y-101357853D01*
X148475805Y-101336495D01*
X148487005Y-101302694D01*
X148487006Y-101302690D01*
X148497499Y-101199986D01*
X148497500Y-101199973D01*
X148497500Y-100750000D01*
X146147501Y-100750000D01*
X146147501Y-101199986D01*
X146157994Y-101302697D01*
X146169194Y-101336496D01*
X146171596Y-101406324D01*
X146135864Y-101466366D01*
X146073344Y-101497559D01*
X146051488Y-101499500D01*
X144351011Y-101499500D01*
X144283972Y-101479815D01*
X144238217Y-101427011D01*
X144228273Y-101357853D01*
X144233305Y-101336495D01*
X144244505Y-101302694D01*
X144244506Y-101302690D01*
X144254999Y-101199986D01*
X144255000Y-101199973D01*
X144255000Y-100750000D01*
X141905001Y-100750000D01*
X141905001Y-101199986D01*
X141915494Y-101302697D01*
X141926694Y-101336496D01*
X141929096Y-101406324D01*
X141893364Y-101466366D01*
X141830844Y-101497559D01*
X141808988Y-101499500D01*
X140846011Y-101499500D01*
X140778972Y-101479815D01*
X140733217Y-101427011D01*
X140723273Y-101357853D01*
X140728305Y-101336495D01*
X140739505Y-101302694D01*
X140739506Y-101302690D01*
X140749999Y-101199986D01*
X140750000Y-101199973D01*
X140750000Y-100750000D01*
X138250001Y-100750000D01*
X138250001Y-101199986D01*
X138260494Y-101302697D01*
X138271694Y-101336496D01*
X138272673Y-101364960D01*
X138276726Y-101393147D01*
X138273858Y-101399425D01*
X138274096Y-101406324D01*
X138259532Y-101430795D01*
X138247701Y-101456703D01*
X138241893Y-101460435D01*
X138238364Y-101466366D01*
X138212881Y-101479079D01*
X138188923Y-101494477D01*
X138179227Y-101495871D01*
X138175844Y-101497559D01*
X138153988Y-101499500D01*
X138004428Y-101499500D01*
X137995582Y-101499184D01*
X137972862Y-101497559D01*
X137795442Y-101484869D01*
X137777931Y-101482351D01*
X137586212Y-101440646D01*
X137569236Y-101435662D01*
X137385390Y-101367090D01*
X137369298Y-101359740D01*
X137197095Y-101265711D01*
X137182210Y-101256146D01*
X137025132Y-101138558D01*
X137011762Y-101126972D01*
X136873025Y-100988235D01*
X136861439Y-100974864D01*
X136774733Y-100859038D01*
X136750316Y-100793574D01*
X136750000Y-100784728D01*
X136750000Y-99800013D01*
X138250000Y-99800013D01*
X138250000Y-100250000D01*
X139250000Y-100250000D01*
X139750000Y-100250000D01*
X140749999Y-100250000D01*
X140749999Y-99800029D01*
X140749998Y-99800013D01*
X141905000Y-99800013D01*
X141905000Y-100250000D01*
X142830000Y-100250000D01*
X142830000Y-99155000D01*
X143330000Y-99155000D01*
X143330000Y-100250000D01*
X144254999Y-100250000D01*
X144254999Y-99800029D01*
X144254998Y-99800013D01*
X146147500Y-99800013D01*
X146147500Y-100250000D01*
X147072500Y-100250000D01*
X147072500Y-99155000D01*
X147053819Y-99136319D01*
X147020334Y-99074996D01*
X147017500Y-99048638D01*
X147017500Y-98970000D01*
X147517500Y-98970000D01*
X147536181Y-98988681D01*
X147569666Y-99050004D01*
X147572500Y-99076362D01*
X147572500Y-100250000D01*
X148497499Y-100250000D01*
X148497499Y-99800029D01*
X148497498Y-99800013D01*
X149652500Y-99800013D01*
X149652500Y-100250000D01*
X150652500Y-100250000D01*
X151152500Y-100250000D01*
X152152499Y-100250000D01*
X152152499Y-99800028D01*
X152152498Y-99800013D01*
X152142005Y-99697302D01*
X152086858Y-99530880D01*
X152086856Y-99530875D01*
X151994815Y-99381654D01*
X151870845Y-99257684D01*
X151721624Y-99165643D01*
X151721619Y-99165641D01*
X151555197Y-99110494D01*
X151555190Y-99110493D01*
X151452486Y-99100000D01*
X151152500Y-99100000D01*
X151152500Y-100250000D01*
X150652500Y-100250000D01*
X150652500Y-99100000D01*
X150352528Y-99100000D01*
X150352512Y-99100001D01*
X150249802Y-99110494D01*
X150083380Y-99165641D01*
X150083375Y-99165643D01*
X149934154Y-99257684D01*
X149810184Y-99381654D01*
X149718143Y-99530875D01*
X149718141Y-99530880D01*
X149662994Y-99697302D01*
X149662993Y-99697309D01*
X149652500Y-99800013D01*
X148497498Y-99800013D01*
X148497498Y-99800012D01*
X148487005Y-99697302D01*
X148431858Y-99530880D01*
X148431856Y-99530875D01*
X148339815Y-99381654D01*
X148215845Y-99257684D01*
X148066624Y-99165643D01*
X148066619Y-99165641D01*
X148039983Y-99156815D01*
X147982538Y-99117042D01*
X147955715Y-99052526D01*
X147968030Y-98983750D01*
X148014837Y-98932992D01*
X148102377Y-98880072D01*
X148222572Y-98759877D01*
X148310519Y-98614395D01*
X148361090Y-98452106D01*
X148367500Y-98381572D01*
X148367500Y-98375000D01*
X147517500Y-98375000D01*
X147517500Y-98970000D01*
X147017500Y-98970000D01*
X147017500Y-98375000D01*
X146167501Y-98375000D01*
X146167501Y-98381582D01*
X146173908Y-98452102D01*
X146173909Y-98452107D01*
X146224481Y-98614396D01*
X146312427Y-98759877D01*
X146432622Y-98880072D01*
X146566274Y-98960868D01*
X146613462Y-99012396D01*
X146625300Y-99081256D01*
X146598031Y-99145584D01*
X146567221Y-99172524D01*
X146429154Y-99257684D01*
X146305184Y-99381654D01*
X146213143Y-99530875D01*
X146213141Y-99530880D01*
X146157994Y-99697302D01*
X146157993Y-99697309D01*
X146147500Y-99800013D01*
X144254998Y-99800013D01*
X144254998Y-99800012D01*
X144244505Y-99697302D01*
X144189358Y-99530880D01*
X144189356Y-99530875D01*
X144097315Y-99381654D01*
X143973345Y-99257684D01*
X143835278Y-99172524D01*
X143788554Y-99120576D01*
X143777331Y-99051613D01*
X143805175Y-98987531D01*
X143836225Y-98960868D01*
X143969877Y-98880072D01*
X144090072Y-98759877D01*
X144178019Y-98614395D01*
X144228590Y-98452106D01*
X144235000Y-98381572D01*
X144235000Y-98375000D01*
X143385000Y-98375000D01*
X143385000Y-99048638D01*
X143365315Y-99115677D01*
X143348681Y-99136319D01*
X143330000Y-99155000D01*
X142830000Y-99155000D01*
X142830000Y-99076362D01*
X142849685Y-99009323D01*
X142866319Y-98988681D01*
X142885000Y-98970000D01*
X142885000Y-98375000D01*
X142035001Y-98375000D01*
X142035001Y-98381582D01*
X142041408Y-98452102D01*
X142041409Y-98452107D01*
X142091981Y-98614396D01*
X142179927Y-98759877D01*
X142300122Y-98880072D01*
X142387662Y-98932992D01*
X142434850Y-98984520D01*
X142446688Y-99053379D01*
X142419419Y-99117708D01*
X142362518Y-99156814D01*
X142335883Y-99165640D01*
X142335875Y-99165643D01*
X142186654Y-99257684D01*
X142062684Y-99381654D01*
X141970643Y-99530875D01*
X141970641Y-99530880D01*
X141915494Y-99697302D01*
X141915493Y-99697309D01*
X141905000Y-99800013D01*
X140749998Y-99800013D01*
X140749998Y-99800012D01*
X140739505Y-99697302D01*
X140684358Y-99530880D01*
X140684356Y-99530875D01*
X140592315Y-99381654D01*
X140468345Y-99257684D01*
X140319124Y-99165643D01*
X140319119Y-99165641D01*
X140152697Y-99110494D01*
X140152690Y-99110493D01*
X140049986Y-99100000D01*
X139750000Y-99100000D01*
X139750000Y-100250000D01*
X139250000Y-100250000D01*
X139250000Y-99100000D01*
X138950028Y-99100000D01*
X138950012Y-99100001D01*
X138847302Y-99110494D01*
X138680880Y-99165641D01*
X138680875Y-99165643D01*
X138531654Y-99257684D01*
X138407684Y-99381654D01*
X138315643Y-99530875D01*
X138315641Y-99530880D01*
X138260494Y-99697302D01*
X138260493Y-99697309D01*
X138250000Y-99800013D01*
X136750000Y-99800013D01*
X136750000Y-93609201D01*
X142034500Y-93609201D01*
X142034500Y-94100808D01*
X142040821Y-94170376D01*
X142040824Y-94170386D01*
X142092837Y-94337303D01*
X142093989Y-94407163D01*
X142091683Y-94413559D01*
X142091719Y-94413570D01*
X142040686Y-94577338D01*
X142040685Y-94577341D01*
X142040685Y-94577343D01*
X142034500Y-94645406D01*
X142034500Y-95104594D01*
X142040549Y-95171153D01*
X142040685Y-95172654D01*
X142040686Y-95172661D01*
X142091719Y-95336430D01*
X142088991Y-95337279D01*
X142096722Y-95393361D01*
X142090866Y-95413304D01*
X142091719Y-95413570D01*
X142040686Y-95577338D01*
X142040685Y-95577341D01*
X142040685Y-95577343D01*
X142034500Y-95645406D01*
X142034500Y-96104594D01*
X142040685Y-96172657D01*
X142040686Y-96172662D01*
X142040687Y-96172664D01*
X142091719Y-96336432D01*
X142089226Y-96337208D01*
X142097091Y-96394125D01*
X142092838Y-96412695D01*
X142059753Y-96518869D01*
X142040825Y-96579616D01*
X142040823Y-96579621D01*
X142034500Y-96649201D01*
X142034500Y-97140808D01*
X142040821Y-97210376D01*
X142040823Y-97210383D01*
X142090708Y-97370470D01*
X142090709Y-97370472D01*
X142132703Y-97439939D01*
X142150539Y-97507494D01*
X142132704Y-97568236D01*
X142091981Y-97635601D01*
X142091980Y-97635603D01*
X142041409Y-97797893D01*
X142035000Y-97868427D01*
X142035000Y-97875000D01*
X144234999Y-97875000D01*
X144234999Y-97868417D01*
X144228591Y-97797897D01*
X144227754Y-97793684D01*
X144233986Y-97724093D01*
X144276852Y-97668918D01*
X144342743Y-97645677D01*
X144349373Y-97645500D01*
X144676082Y-97645500D01*
X144823918Y-97645500D01*
X146053128Y-97645500D01*
X146120167Y-97665185D01*
X146165922Y-97717989D01*
X146175866Y-97787147D01*
X146174746Y-97793689D01*
X146173908Y-97797897D01*
X146167500Y-97868427D01*
X146167500Y-97875000D01*
X148367499Y-97875000D01*
X148367499Y-97868417D01*
X148361091Y-97797897D01*
X148361090Y-97797892D01*
X148310518Y-97635603D01*
X148269795Y-97568238D01*
X148251959Y-97500683D01*
X148269794Y-97439941D01*
X148311791Y-97370471D01*
X148361677Y-97210380D01*
X148368000Y-97140801D01*
X148367999Y-96649200D01*
X148367999Y-96649199D01*
X148367999Y-96649191D01*
X148361678Y-96579623D01*
X148361676Y-96579616D01*
X148309662Y-96412698D01*
X148308510Y-96342838D01*
X148310816Y-96336443D01*
X148310781Y-96336432D01*
X148335816Y-96256088D01*
X148361815Y-96172657D01*
X148368000Y-96104594D01*
X148368000Y-95645406D01*
X148361815Y-95577343D01*
X148332569Y-95483489D01*
X148310781Y-95413568D01*
X148313521Y-95412713D01*
X148305764Y-95356727D01*
X148311643Y-95336700D01*
X148310781Y-95336432D01*
X148335816Y-95256088D01*
X148361815Y-95172657D01*
X148368000Y-95104594D01*
X148368000Y-94645406D01*
X148361815Y-94577343D01*
X148341838Y-94513236D01*
X148310781Y-94413568D01*
X148313277Y-94412790D01*
X148305404Y-94355896D01*
X148309662Y-94337303D01*
X148311791Y-94330471D01*
X148361677Y-94170380D01*
X148368000Y-94100801D01*
X148367999Y-93609200D01*
X148367999Y-93609199D01*
X148367999Y-93609191D01*
X148361678Y-93539623D01*
X148361676Y-93539616D01*
X148311791Y-93379530D01*
X148311791Y-93379529D01*
X148269794Y-93310057D01*
X148251959Y-93242505D01*
X148269796Y-93181759D01*
X148310518Y-93114398D01*
X148310520Y-93114393D01*
X148361090Y-92952106D01*
X148367500Y-92881572D01*
X148367500Y-92875000D01*
X146167501Y-92875000D01*
X146167501Y-92881582D01*
X146173908Y-92952102D01*
X146174746Y-92956316D01*
X146168514Y-93025907D01*
X146125648Y-93081082D01*
X146059757Y-93104323D01*
X146053127Y-93104500D01*
X144349372Y-93104500D01*
X144282333Y-93084815D01*
X144236578Y-93032011D01*
X144226634Y-92962853D01*
X144227754Y-92956311D01*
X144228591Y-92952102D01*
X144235000Y-92881572D01*
X144235000Y-92875000D01*
X142035001Y-92875000D01*
X142035001Y-92881582D01*
X142041408Y-92952102D01*
X142041409Y-92952107D01*
X142091981Y-93114398D01*
X142091982Y-93114400D01*
X142132703Y-93181761D01*
X142150539Y-93249315D01*
X142132704Y-93310058D01*
X142090710Y-93379525D01*
X142040822Y-93539623D01*
X142034500Y-93609201D01*
X136750000Y-93609201D01*
X136750000Y-90949986D01*
X138250001Y-90949986D01*
X138260494Y-91052697D01*
X138315641Y-91219119D01*
X138315643Y-91219124D01*
X138407684Y-91368345D01*
X138531654Y-91492315D01*
X138680875Y-91584356D01*
X138680880Y-91584358D01*
X138847302Y-91639505D01*
X138847309Y-91639506D01*
X138950019Y-91649999D01*
X139249999Y-91649999D01*
X139750000Y-91649999D01*
X140049972Y-91649999D01*
X140049986Y-91649998D01*
X140152697Y-91639505D01*
X140319119Y-91584358D01*
X140319124Y-91584356D01*
X140468345Y-91492315D01*
X140592315Y-91368345D01*
X140684356Y-91219124D01*
X140684358Y-91219119D01*
X140739505Y-91052697D01*
X140739506Y-91052690D01*
X140749999Y-90949986D01*
X141905001Y-90949986D01*
X141915494Y-91052697D01*
X141970641Y-91219119D01*
X141970643Y-91219124D01*
X142062684Y-91368345D01*
X142186654Y-91492315D01*
X142335875Y-91584356D01*
X142335884Y-91584360D01*
X142362514Y-91593184D01*
X142419960Y-91632955D01*
X142446784Y-91697471D01*
X142434470Y-91766247D01*
X142387663Y-91817006D01*
X142300125Y-91869925D01*
X142300121Y-91869928D01*
X142179927Y-91990122D01*
X142091980Y-92135604D01*
X142041409Y-92297893D01*
X142035000Y-92368427D01*
X142035000Y-92375000D01*
X142885000Y-92375000D01*
X142885000Y-91780000D01*
X142866319Y-91761319D01*
X142832834Y-91699996D01*
X142830000Y-91673638D01*
X142830000Y-91595000D01*
X143330000Y-91595000D01*
X143348681Y-91613681D01*
X143382166Y-91675004D01*
X143385000Y-91701362D01*
X143385000Y-92375000D01*
X144234999Y-92375000D01*
X144234999Y-92368417D01*
X144228591Y-92297897D01*
X144228590Y-92297892D01*
X144178018Y-92135603D01*
X144090072Y-91990122D01*
X143969877Y-91869927D01*
X143836225Y-91789131D01*
X143789037Y-91737603D01*
X143777199Y-91668743D01*
X143804468Y-91604415D01*
X143835279Y-91577475D01*
X143973343Y-91492317D01*
X144097315Y-91368345D01*
X144189356Y-91219124D01*
X144189358Y-91219119D01*
X144244505Y-91052697D01*
X144244506Y-91052690D01*
X144254999Y-90949986D01*
X146147501Y-90949986D01*
X146157994Y-91052697D01*
X146213141Y-91219119D01*
X146213143Y-91219124D01*
X146305184Y-91368345D01*
X146429156Y-91492317D01*
X146567220Y-91577475D01*
X146613945Y-91629423D01*
X146625168Y-91698385D01*
X146597324Y-91762468D01*
X146566275Y-91789130D01*
X146432625Y-91869925D01*
X146432621Y-91869928D01*
X146312427Y-91990122D01*
X146224480Y-92135604D01*
X146173909Y-92297893D01*
X146167500Y-92368427D01*
X146167500Y-92375000D01*
X147017500Y-92375000D01*
X147017500Y-91780000D01*
X147517500Y-91780000D01*
X147517500Y-92375000D01*
X148367499Y-92375000D01*
X148367499Y-92368417D01*
X148361091Y-92297897D01*
X148361090Y-92297892D01*
X148310518Y-92135603D01*
X148222572Y-91990122D01*
X148102377Y-91869927D01*
X148014837Y-91817007D01*
X147967649Y-91765479D01*
X147955811Y-91696619D01*
X147983080Y-91632291D01*
X148039986Y-91593183D01*
X148066620Y-91584357D01*
X148066624Y-91584356D01*
X148215845Y-91492315D01*
X148339815Y-91368345D01*
X148431856Y-91219124D01*
X148431858Y-91219119D01*
X148487005Y-91052697D01*
X148487006Y-91052690D01*
X148497499Y-90949986D01*
X149652501Y-90949986D01*
X149662994Y-91052697D01*
X149718141Y-91219119D01*
X149718143Y-91219124D01*
X149810184Y-91368345D01*
X149934154Y-91492315D01*
X150083375Y-91584356D01*
X150083380Y-91584358D01*
X150249802Y-91639505D01*
X150249809Y-91639506D01*
X150352519Y-91649999D01*
X150652499Y-91649999D01*
X151152500Y-91649999D01*
X151452472Y-91649999D01*
X151452486Y-91649998D01*
X151555197Y-91639505D01*
X151721619Y-91584358D01*
X151721624Y-91584356D01*
X151870845Y-91492315D01*
X151994815Y-91368345D01*
X152086856Y-91219124D01*
X152086858Y-91219119D01*
X152142005Y-91052697D01*
X152142006Y-91052690D01*
X152152499Y-90949986D01*
X152152500Y-90949973D01*
X152152500Y-90500000D01*
X151152500Y-90500000D01*
X151152500Y-91649999D01*
X150652499Y-91649999D01*
X150652500Y-91649998D01*
X150652500Y-90500000D01*
X149652501Y-90500000D01*
X149652501Y-90949986D01*
X148497499Y-90949986D01*
X148497500Y-90949973D01*
X148497500Y-90500000D01*
X147572500Y-90500000D01*
X147572500Y-91673638D01*
X147552815Y-91740677D01*
X147536181Y-91761319D01*
X147517500Y-91780000D01*
X147017500Y-91780000D01*
X147017500Y-91701362D01*
X147037185Y-91634323D01*
X147053819Y-91613681D01*
X147072500Y-91595000D01*
X147072500Y-90500000D01*
X146147501Y-90500000D01*
X146147501Y-90949986D01*
X144254999Y-90949986D01*
X144255000Y-90949973D01*
X144255000Y-90500000D01*
X143330000Y-90500000D01*
X143330000Y-91595000D01*
X142830000Y-91595000D01*
X142830000Y-90500000D01*
X141905001Y-90500000D01*
X141905001Y-90949986D01*
X140749999Y-90949986D01*
X140750000Y-90949973D01*
X140750000Y-90500000D01*
X139750000Y-90500000D01*
X139750000Y-91649999D01*
X139249999Y-91649999D01*
X139250000Y-91649998D01*
X139250000Y-90500000D01*
X138250001Y-90500000D01*
X138250001Y-90949986D01*
X136750000Y-90949986D01*
X136750000Y-89550013D01*
X138250000Y-89550013D01*
X138250000Y-90000000D01*
X139250000Y-90000000D01*
X139750000Y-90000000D01*
X140749999Y-90000000D01*
X140749999Y-89550029D01*
X140749998Y-89550013D01*
X141905000Y-89550013D01*
X141905000Y-90000000D01*
X142830000Y-90000000D01*
X143330000Y-90000000D01*
X144254999Y-90000000D01*
X144254999Y-89550029D01*
X144254998Y-89550013D01*
X146147500Y-89550013D01*
X146147500Y-90000000D01*
X147072500Y-90000000D01*
X147572500Y-90000000D01*
X148497499Y-90000000D01*
X148497499Y-89550029D01*
X148497498Y-89550013D01*
X149652500Y-89550013D01*
X149652500Y-90000000D01*
X150652500Y-90000000D01*
X150652500Y-88850000D01*
X150352528Y-88850000D01*
X150352512Y-88850001D01*
X150249802Y-88860494D01*
X150083380Y-88915641D01*
X150083375Y-88915643D01*
X149934154Y-89007684D01*
X149810184Y-89131654D01*
X149718143Y-89280875D01*
X149718141Y-89280880D01*
X149662994Y-89447302D01*
X149662993Y-89447309D01*
X149652500Y-89550013D01*
X148497498Y-89550013D01*
X148497498Y-89550012D01*
X148487005Y-89447302D01*
X148431858Y-89280880D01*
X148431856Y-89280875D01*
X148339815Y-89131654D01*
X148215845Y-89007684D01*
X148066624Y-88915643D01*
X148066619Y-88915641D01*
X147900197Y-88860494D01*
X147900190Y-88860493D01*
X147797486Y-88850000D01*
X147572500Y-88850000D01*
X147572500Y-90000000D01*
X147072500Y-90000000D01*
X147072500Y-88850000D01*
X146847529Y-88850000D01*
X146847512Y-88850001D01*
X146744802Y-88860494D01*
X146578380Y-88915641D01*
X146578375Y-88915643D01*
X146429154Y-89007684D01*
X146305184Y-89131654D01*
X146213143Y-89280875D01*
X146213141Y-89280880D01*
X146157994Y-89447302D01*
X146157993Y-89447309D01*
X146147500Y-89550013D01*
X144254998Y-89550013D01*
X144254998Y-89550012D01*
X144244505Y-89447302D01*
X144189358Y-89280880D01*
X144189356Y-89280875D01*
X144097315Y-89131654D01*
X143973345Y-89007684D01*
X143824124Y-88915643D01*
X143824119Y-88915641D01*
X143657697Y-88860494D01*
X143657690Y-88860493D01*
X143554986Y-88850000D01*
X143330000Y-88850000D01*
X143330000Y-90000000D01*
X142830000Y-90000000D01*
X142830000Y-88850000D01*
X142605029Y-88850000D01*
X142605012Y-88850001D01*
X142502302Y-88860494D01*
X142335880Y-88915641D01*
X142335875Y-88915643D01*
X142186654Y-89007684D01*
X142062684Y-89131654D01*
X141970643Y-89280875D01*
X141970641Y-89280880D01*
X141915494Y-89447302D01*
X141915493Y-89447309D01*
X141905000Y-89550013D01*
X140749998Y-89550013D01*
X140749998Y-89550012D01*
X140739505Y-89447302D01*
X140684358Y-89280880D01*
X140684356Y-89280875D01*
X140592315Y-89131654D01*
X140468345Y-89007684D01*
X140319124Y-88915643D01*
X140319119Y-88915641D01*
X140152697Y-88860494D01*
X140152690Y-88860493D01*
X140049986Y-88850000D01*
X139750000Y-88850000D01*
X139750000Y-90000000D01*
X139250000Y-90000000D01*
X139250000Y-88850000D01*
X138950028Y-88850000D01*
X138950012Y-88850001D01*
X138847302Y-88860494D01*
X138680880Y-88915641D01*
X138680875Y-88915643D01*
X138531654Y-89007684D01*
X138407684Y-89131654D01*
X138315643Y-89280875D01*
X138315641Y-89280880D01*
X138260494Y-89447302D01*
X138260493Y-89447309D01*
X138250000Y-89550013D01*
X136750000Y-89550013D01*
X136750000Y-87486741D01*
X139850000Y-87486741D01*
X139852732Y-87527034D01*
X139896041Y-87701180D01*
X139975768Y-87861935D01*
X139975770Y-87861938D01*
X140088196Y-88001802D01*
X140088197Y-88001803D01*
X140228061Y-88114229D01*
X140228064Y-88114231D01*
X140388819Y-88193958D01*
X140562965Y-88237267D01*
X140603258Y-88240000D01*
X140750000Y-88240000D01*
X140750000Y-86490000D01*
X139850000Y-86490000D01*
X139850000Y-87486741D01*
X136750000Y-87486741D01*
X136750000Y-84993258D01*
X139850000Y-84993258D01*
X139850000Y-85990000D01*
X140750000Y-85990000D01*
X140750000Y-84240000D01*
X141250000Y-84240000D01*
X141250000Y-88240000D01*
X141396742Y-88240000D01*
X141437034Y-88237267D01*
X141611180Y-88193958D01*
X141771935Y-88114231D01*
X141771938Y-88114229D01*
X141911802Y-88001803D01*
X141911803Y-88001802D01*
X142024229Y-87861938D01*
X142024231Y-87861935D01*
X142103958Y-87701179D01*
X142129407Y-87598850D01*
X142164689Y-87538543D01*
X142226975Y-87506884D01*
X142296489Y-87513925D01*
X142351161Y-87557431D01*
X142370077Y-87598850D01*
X142395567Y-87701350D01*
X142475346Y-87862209D01*
X142587659Y-88001932D01*
X142587841Y-88002159D01*
X142727790Y-88114653D01*
X142888651Y-88194433D01*
X143062900Y-88237766D01*
X143103216Y-88240500D01*
X143103218Y-88240500D01*
X143896782Y-88240500D01*
X143896784Y-88240500D01*
X143937100Y-88237766D01*
X144111349Y-88194433D01*
X144272210Y-88114653D01*
X144412159Y-88002159D01*
X144412162Y-88002154D01*
X144412319Y-88001999D01*
X144412440Y-88001932D01*
X144417399Y-87997947D01*
X144418112Y-87998835D01*
X144473642Y-87968514D01*
X144543334Y-87973498D01*
X144582183Y-87998466D01*
X144582601Y-87997947D01*
X144587486Y-88001873D01*
X144587681Y-88001999D01*
X144587840Y-88002158D01*
X144587841Y-88002159D01*
X144727790Y-88114653D01*
X144888651Y-88194433D01*
X145062900Y-88237766D01*
X145103216Y-88240500D01*
X145103218Y-88240500D01*
X145896782Y-88240500D01*
X145896784Y-88240500D01*
X145937100Y-88237766D01*
X146111349Y-88194433D01*
X146272210Y-88114653D01*
X146412159Y-88002159D01*
X146524653Y-87862210D01*
X146604433Y-87701349D01*
X146629665Y-87599885D01*
X146664947Y-87539579D01*
X146727233Y-87507920D01*
X146796747Y-87514961D01*
X146851419Y-87558466D01*
X146870334Y-87599884D01*
X146883246Y-87651805D01*
X146895567Y-87701350D01*
X146975346Y-87862209D01*
X147087659Y-88001932D01*
X147087841Y-88002159D01*
X147227790Y-88114653D01*
X147388651Y-88194433D01*
X147562900Y-88237766D01*
X147603216Y-88240500D01*
X147603218Y-88240500D01*
X148396782Y-88240500D01*
X148396784Y-88240500D01*
X148437100Y-88237766D01*
X148611349Y-88194433D01*
X148772210Y-88114653D01*
X148912159Y-88002159D01*
X149024653Y-87862210D01*
X149104433Y-87701349D01*
X149147766Y-87527100D01*
X149150500Y-87486784D01*
X149150500Y-87374500D01*
X149170185Y-87307461D01*
X149222989Y-87261706D01*
X149274500Y-87250500D01*
X149695396Y-87250500D01*
X149742844Y-87259937D01*
X149766503Y-87269737D01*
X149766508Y-87269738D01*
X149766511Y-87269739D01*
X149921153Y-87300499D01*
X149921156Y-87300500D01*
X149921158Y-87300500D01*
X150078844Y-87300500D01*
X150078845Y-87300499D01*
X150233497Y-87269737D01*
X150379179Y-87209394D01*
X150510289Y-87121789D01*
X150621789Y-87010289D01*
X150709394Y-86879179D01*
X150769737Y-86733497D01*
X150800500Y-86578842D01*
X150800500Y-86421158D01*
X150800500Y-86421155D01*
X150800499Y-86421153D01*
X150769738Y-86266510D01*
X150769737Y-86266503D01*
X150747324Y-86212393D01*
X150709397Y-86120827D01*
X150709390Y-86120814D01*
X150621789Y-85989711D01*
X150621786Y-85989707D01*
X150510292Y-85878213D01*
X150510288Y-85878210D01*
X150379185Y-85790609D01*
X150379172Y-85790602D01*
X150233501Y-85730264D01*
X150233489Y-85730261D01*
X150078845Y-85699500D01*
X150078842Y-85699500D01*
X149921158Y-85699500D01*
X149921155Y-85699500D01*
X149766511Y-85730260D01*
X149766506Y-85730262D01*
X149766504Y-85730262D01*
X149766503Y-85730263D01*
X149742844Y-85740062D01*
X149695396Y-85749500D01*
X149274500Y-85749500D01*
X149207461Y-85729815D01*
X149161706Y-85677011D01*
X149150500Y-85625500D01*
X149150500Y-84993218D01*
X149150500Y-84993216D01*
X149147766Y-84952900D01*
X149104433Y-84778651D01*
X149024653Y-84617790D01*
X148912159Y-84477841D01*
X148827025Y-84409408D01*
X148772209Y-84365346D01*
X148611350Y-84285567D01*
X148437102Y-84242234D01*
X148437103Y-84242234D01*
X148412910Y-84240593D01*
X148396784Y-84239500D01*
X147603216Y-84239500D01*
X147587089Y-84240593D01*
X147562897Y-84242234D01*
X147388649Y-84285567D01*
X147227790Y-84365346D01*
X147087841Y-84477840D01*
X147087840Y-84477841D01*
X146975346Y-84617790D01*
X146895567Y-84778649D01*
X146870335Y-84880113D01*
X146835053Y-84940420D01*
X146772767Y-84972079D01*
X146703253Y-84965038D01*
X146648581Y-84921533D01*
X146629665Y-84880113D01*
X146604475Y-84778820D01*
X146604433Y-84778651D01*
X146524653Y-84617790D01*
X146412159Y-84477841D01*
X146327025Y-84409408D01*
X146272209Y-84365346D01*
X146111350Y-84285567D01*
X145937102Y-84242234D01*
X145937103Y-84242234D01*
X145912910Y-84240593D01*
X145896784Y-84239500D01*
X145103216Y-84239500D01*
X145087089Y-84240593D01*
X145062897Y-84242234D01*
X144888649Y-84285567D01*
X144727790Y-84365346D01*
X144587841Y-84477840D01*
X144587681Y-84478001D01*
X144587559Y-84478067D01*
X144582601Y-84482053D01*
X144581887Y-84481164D01*
X144526358Y-84511486D01*
X144456666Y-84506502D01*
X144417816Y-84481533D01*
X144417399Y-84482053D01*
X144412513Y-84478126D01*
X144412319Y-84478001D01*
X144412158Y-84477840D01*
X144272209Y-84365346D01*
X144111350Y-84285567D01*
X143937102Y-84242234D01*
X143937103Y-84242234D01*
X143912910Y-84240593D01*
X143896784Y-84239500D01*
X143103216Y-84239500D01*
X143087089Y-84240593D01*
X143062897Y-84242234D01*
X142888649Y-84285567D01*
X142727790Y-84365346D01*
X142587841Y-84477840D01*
X142587840Y-84477841D01*
X142475346Y-84617790D01*
X142395567Y-84778649D01*
X142370077Y-84881149D01*
X142334794Y-84941456D01*
X142272509Y-84973115D01*
X142202995Y-84966074D01*
X142148323Y-84922568D01*
X142129407Y-84881149D01*
X142103958Y-84778820D01*
X142024231Y-84618064D01*
X142024229Y-84618061D01*
X141911803Y-84478197D01*
X141911802Y-84478196D01*
X141771938Y-84365770D01*
X141771935Y-84365768D01*
X141611180Y-84286041D01*
X141437034Y-84242732D01*
X141396742Y-84240000D01*
X141250000Y-84240000D01*
X140750000Y-84240000D01*
X140603258Y-84240000D01*
X140562965Y-84242732D01*
X140388819Y-84286041D01*
X140228064Y-84365768D01*
X140228061Y-84365770D01*
X140088197Y-84478196D01*
X140088196Y-84478197D01*
X139975770Y-84618061D01*
X139975768Y-84618064D01*
X139896041Y-84778819D01*
X139852732Y-84952965D01*
X139850000Y-84993258D01*
X136750000Y-84993258D01*
X136750000Y-83650000D01*
X136750000Y-83286448D01*
X137000000Y-83286448D01*
X137746448Y-82540000D01*
X137746448Y-82539999D01*
X137000000Y-81793551D01*
X137000000Y-83286448D01*
X136750000Y-83286448D01*
X136750000Y-81201030D01*
X137114583Y-81201030D01*
X137114583Y-81201032D01*
X137800000Y-81886448D01*
X137800000Y-83193551D01*
X137114583Y-83878966D01*
X137114583Y-83878968D01*
X137159195Y-83966524D01*
X137260967Y-84106602D01*
X137383397Y-84229032D01*
X137523475Y-84330804D01*
X137677742Y-84409408D01*
X137842415Y-84462914D01*
X138013429Y-84490000D01*
X138186571Y-84490000D01*
X138357584Y-84462914D01*
X138522257Y-84409408D01*
X138676524Y-84330804D01*
X138816602Y-84229032D01*
X138939032Y-84106602D01*
X139040805Y-83966521D01*
X139085415Y-83878967D01*
X138400000Y-83193552D01*
X138400000Y-82539999D01*
X138453552Y-82539999D01*
X138453552Y-82540000D01*
X139199999Y-83286448D01*
X149800000Y-83286448D01*
X150546448Y-82540000D01*
X150546448Y-82539999D01*
X149800000Y-81793551D01*
X149800000Y-83286448D01*
X139199999Y-83286448D01*
X139200000Y-83286447D01*
X139200000Y-81793552D01*
X139199999Y-81793551D01*
X138453552Y-82539999D01*
X138400000Y-82539999D01*
X138400000Y-81886448D01*
X139085416Y-81201031D01*
X139085415Y-81201030D01*
X149914583Y-81201030D01*
X149914583Y-81201032D01*
X150600000Y-81886448D01*
X150600000Y-83193551D01*
X149914583Y-83878966D01*
X149914583Y-83878968D01*
X149959195Y-83966524D01*
X150060967Y-84106602D01*
X150183397Y-84229032D01*
X150323475Y-84330804D01*
X150477742Y-84409408D01*
X150642415Y-84462914D01*
X150813429Y-84490000D01*
X150986571Y-84490000D01*
X151157584Y-84462914D01*
X151322257Y-84409408D01*
X151476524Y-84330804D01*
X151567099Y-84264998D01*
X152183005Y-84264998D01*
X152183007Y-84265000D01*
X152750000Y-84265000D01*
X152750000Y-83720954D01*
X152725402Y-83722889D01*
X152568307Y-83768529D01*
X152568302Y-83768531D01*
X152427491Y-83851806D01*
X152427483Y-83851812D01*
X152311812Y-83967483D01*
X152311806Y-83967491D01*
X152228530Y-84108304D01*
X152228528Y-84108307D01*
X152183005Y-84264998D01*
X151567099Y-84264998D01*
X151616602Y-84229032D01*
X151643412Y-84202223D01*
X151739032Y-84106602D01*
X151840804Y-83966523D01*
X151885415Y-83878967D01*
X151200000Y-83193552D01*
X151200000Y-82539999D01*
X151253552Y-82539999D01*
X151253552Y-82540000D01*
X151999999Y-83286448D01*
X152000000Y-83286447D01*
X152000000Y-81793552D01*
X151999999Y-81793551D01*
X151253552Y-82539999D01*
X151200000Y-82539999D01*
X151200000Y-81886448D01*
X151885416Y-81201031D01*
X151840804Y-81113475D01*
X151739032Y-80973397D01*
X151616602Y-80850967D01*
X151476524Y-80749195D01*
X151322257Y-80670591D01*
X151157584Y-80617085D01*
X150986571Y-80590000D01*
X150813429Y-80590000D01*
X150642415Y-80617085D01*
X150477742Y-80670591D01*
X150323475Y-80749195D01*
X150183397Y-80850967D01*
X150060967Y-80973397D01*
X149959194Y-81113478D01*
X149914583Y-81201030D01*
X139085415Y-81201030D01*
X139040805Y-81113477D01*
X138939032Y-80973397D01*
X138816602Y-80850967D01*
X138676524Y-80749195D01*
X138522257Y-80670591D01*
X138357584Y-80617085D01*
X138186571Y-80590000D01*
X138013429Y-80590000D01*
X137842415Y-80617085D01*
X137677742Y-80670591D01*
X137523475Y-80749195D01*
X137383397Y-80850967D01*
X137260967Y-80973397D01*
X137159194Y-81113478D01*
X137114583Y-81201030D01*
X136750000Y-81201030D01*
X136750000Y-74715271D01*
X136769685Y-74648232D01*
X136774722Y-74640974D01*
X136861448Y-74525123D01*
X136873020Y-74511769D01*
X137011769Y-74373020D01*
X137025123Y-74361448D01*
X137182221Y-74243845D01*
X137197089Y-74234291D01*
X137369298Y-74140258D01*
X137385385Y-74132911D01*
X137569248Y-74064333D01*
X137586199Y-74059356D01*
X137777938Y-74017646D01*
X137795436Y-74015130D01*
X137995582Y-74000816D01*
X138004428Y-74000500D01*
X138065892Y-74000500D01*
X151684108Y-74000500D01*
X151745572Y-74000500D01*
X151754418Y-74000816D01*
G37*
G04 #@! TD.AperFunction*
M02*
