%TF.GenerationSoftware,KiCad,Pcbnew,9.0.3*%
%TF.CreationDate,2025-09-05T20:04:56+02:00*%
%TF.ProjectId,SwitchHolderAdapter,53776974-6368-4486-9f6c-646572416461,rev?*%
%TF.SameCoordinates,Original*%
%TF.FileFunction,Drillmap*%
%TF.FilePolarity,Positive*%
%FSLAX45Y45*%
G04 Gerber Fmt 4.5, Leading zero omitted, Abs format (unit mm)*
G04 Created by KiCad (PCBNEW 9.0.3) date 2025-09-05 20:04:56*
%MOMM*%
%LPD*%
G01*
G04 APERTURE LIST*
%ADD10C,0.050000*%
%ADD11C,0.200000*%
%ADD12C,0.100000*%
G04 APERTURE END LIST*
D10*
X15175000Y-7350000D02*
G75*
G02*
X15375000Y-7550000I0J-200000D01*
G01*
X13600000Y-7550000D02*
G75*
G02*
X13800000Y-7350000I200000J0D01*
G01*
X15375000Y-10000000D02*
G75*
G02*
X15175000Y-10200000I-200000J0D01*
G01*
X13800000Y-10200000D02*
G75*
G02*
X13600000Y-10000000I0J200000D01*
G01*
X13800000Y-7350000D02*
X15175000Y-7350000D01*
X15375000Y-7550000D02*
X15375000Y-10000000D01*
X13600000Y-10000000D02*
X13600000Y-7550000D01*
X15175000Y-10200000D02*
X13800000Y-10200000D01*
D11*
D12*
X14460000Y-9510000D02*
X14490000Y-9540000D01*
X14490000Y-9510000D02*
X14460000Y-9540000D01*
X14985000Y-8635000D02*
X15015000Y-8665000D01*
X15015000Y-8635000D02*
X14985000Y-8665000D01*
X15135000Y-8785000D02*
X15165000Y-8815000D01*
X15165000Y-8785000D02*
X15135000Y-8815000D01*
X13840000Y-8254000D02*
G75*
G02*
X13780000Y-8254000I-30000J0D01*
G01*
X13780000Y-8254000D02*
G75*
G02*
X13840000Y-8254000I30000J0D01*
G01*
X13840000Y-8339000D02*
X13840000Y-8169000D01*
X13780000Y-8169000D02*
G75*
G02*
X13840000Y-8169000I30000J0D01*
G01*
X13780000Y-8169000D02*
X13780000Y-8339000D01*
X13780000Y-8339000D02*
G75*
G03*
X13840000Y-8339000I30000J0D01*
G01*
X15120000Y-8254000D02*
G75*
G02*
X15060000Y-8254000I-30000J0D01*
G01*
X15060000Y-8254000D02*
G75*
G02*
X15120000Y-8254000I30000J0D01*
G01*
X15120000Y-8339000D02*
X15120000Y-8169000D01*
X15060000Y-8169000D02*
G75*
G02*
X15120000Y-8169000I30000J0D01*
G01*
X15060000Y-8169000D02*
X15060000Y-8339000D01*
X15060000Y-8339000D02*
G75*
G03*
X15120000Y-8339000I30000J0D01*
G01*
D11*
X13858277Y-10513984D02*
X13858277Y-10313984D01*
X13858277Y-10313984D02*
X13905896Y-10313984D01*
X13905896Y-10313984D02*
X13934467Y-10323508D01*
X13934467Y-10323508D02*
X13953515Y-10342555D01*
X13953515Y-10342555D02*
X13963039Y-10361603D01*
X13963039Y-10361603D02*
X13972562Y-10399698D01*
X13972562Y-10399698D02*
X13972562Y-10428270D01*
X13972562Y-10428270D02*
X13963039Y-10466365D01*
X13963039Y-10466365D02*
X13953515Y-10485412D01*
X13953515Y-10485412D02*
X13934467Y-10504460D01*
X13934467Y-10504460D02*
X13905896Y-10513984D01*
X13905896Y-10513984D02*
X13858277Y-10513984D01*
X14058277Y-10513984D02*
X14058277Y-10380650D01*
X14058277Y-10418746D02*
X14067801Y-10399698D01*
X14067801Y-10399698D02*
X14077324Y-10390174D01*
X14077324Y-10390174D02*
X14096372Y-10380650D01*
X14096372Y-10380650D02*
X14115420Y-10380650D01*
X14182086Y-10513984D02*
X14182086Y-10380650D01*
X14182086Y-10313984D02*
X14172562Y-10323508D01*
X14172562Y-10323508D02*
X14182086Y-10333031D01*
X14182086Y-10333031D02*
X14191610Y-10323508D01*
X14191610Y-10323508D02*
X14182086Y-10313984D01*
X14182086Y-10313984D02*
X14182086Y-10333031D01*
X14305896Y-10513984D02*
X14286848Y-10504460D01*
X14286848Y-10504460D02*
X14277324Y-10485412D01*
X14277324Y-10485412D02*
X14277324Y-10313984D01*
X14410658Y-10513984D02*
X14391610Y-10504460D01*
X14391610Y-10504460D02*
X14382086Y-10485412D01*
X14382086Y-10485412D02*
X14382086Y-10313984D01*
X14639229Y-10513984D02*
X14639229Y-10313984D01*
X14639229Y-10313984D02*
X14705896Y-10456841D01*
X14705896Y-10456841D02*
X14772562Y-10313984D01*
X14772562Y-10313984D02*
X14772562Y-10513984D01*
X14953515Y-10513984D02*
X14953515Y-10409222D01*
X14953515Y-10409222D02*
X14943991Y-10390174D01*
X14943991Y-10390174D02*
X14924943Y-10380650D01*
X14924943Y-10380650D02*
X14886848Y-10380650D01*
X14886848Y-10380650D02*
X14867801Y-10390174D01*
X14953515Y-10504460D02*
X14934467Y-10513984D01*
X14934467Y-10513984D02*
X14886848Y-10513984D01*
X14886848Y-10513984D02*
X14867801Y-10504460D01*
X14867801Y-10504460D02*
X14858277Y-10485412D01*
X14858277Y-10485412D02*
X14858277Y-10466365D01*
X14858277Y-10466365D02*
X14867801Y-10447317D01*
X14867801Y-10447317D02*
X14886848Y-10437793D01*
X14886848Y-10437793D02*
X14934467Y-10437793D01*
X14934467Y-10437793D02*
X14953515Y-10428270D01*
X15048753Y-10380650D02*
X15048753Y-10580650D01*
X15048753Y-10390174D02*
X15067801Y-10380650D01*
X15067801Y-10380650D02*
X15105896Y-10380650D01*
X15105896Y-10380650D02*
X15124943Y-10390174D01*
X15124943Y-10390174D02*
X15134467Y-10399698D01*
X15134467Y-10399698D02*
X15143991Y-10418746D01*
X15143991Y-10418746D02*
X15143991Y-10475889D01*
X15143991Y-10475889D02*
X15134467Y-10494936D01*
X15134467Y-10494936D02*
X15124943Y-10504460D01*
X15124943Y-10504460D02*
X15105896Y-10513984D01*
X15105896Y-10513984D02*
X15067801Y-10513984D01*
X15067801Y-10513984D02*
X15048753Y-10504460D01*
X15229705Y-10494936D02*
X15239229Y-10504460D01*
X15239229Y-10504460D02*
X15229705Y-10513984D01*
X15229705Y-10513984D02*
X15220182Y-10504460D01*
X15220182Y-10504460D02*
X15229705Y-10494936D01*
X15229705Y-10494936D02*
X15229705Y-10513984D01*
X15229705Y-10390174D02*
X15239229Y-10399698D01*
X15239229Y-10399698D02*
X15229705Y-10409222D01*
X15229705Y-10409222D02*
X15220182Y-10399698D01*
X15220182Y-10399698D02*
X15229705Y-10390174D01*
X15229705Y-10390174D02*
X15229705Y-10409222D01*
D12*
X13567500Y-10827500D02*
X13597500Y-10857500D01*
X13597500Y-10827500D02*
X13567500Y-10857500D01*
D11*
X13896372Y-10733984D02*
X13915420Y-10733984D01*
X13915420Y-10733984D02*
X13934467Y-10743508D01*
X13934467Y-10743508D02*
X13943991Y-10753031D01*
X13943991Y-10753031D02*
X13953515Y-10772079D01*
X13953515Y-10772079D02*
X13963039Y-10810174D01*
X13963039Y-10810174D02*
X13963039Y-10857793D01*
X13963039Y-10857793D02*
X13953515Y-10895889D01*
X13953515Y-10895889D02*
X13943991Y-10914936D01*
X13943991Y-10914936D02*
X13934467Y-10924460D01*
X13934467Y-10924460D02*
X13915420Y-10933984D01*
X13915420Y-10933984D02*
X13896372Y-10933984D01*
X13896372Y-10933984D02*
X13877324Y-10924460D01*
X13877324Y-10924460D02*
X13867801Y-10914936D01*
X13867801Y-10914936D02*
X13858277Y-10895889D01*
X13858277Y-10895889D02*
X13848753Y-10857793D01*
X13848753Y-10857793D02*
X13848753Y-10810174D01*
X13848753Y-10810174D02*
X13858277Y-10772079D01*
X13858277Y-10772079D02*
X13867801Y-10753031D01*
X13867801Y-10753031D02*
X13877324Y-10743508D01*
X13877324Y-10743508D02*
X13896372Y-10733984D01*
X14048753Y-10914936D02*
X14058277Y-10924460D01*
X14058277Y-10924460D02*
X14048753Y-10933984D01*
X14048753Y-10933984D02*
X14039229Y-10924460D01*
X14039229Y-10924460D02*
X14048753Y-10914936D01*
X14048753Y-10914936D02*
X14048753Y-10933984D01*
X14124943Y-10733984D02*
X14248753Y-10733984D01*
X14248753Y-10733984D02*
X14182086Y-10810174D01*
X14182086Y-10810174D02*
X14210658Y-10810174D01*
X14210658Y-10810174D02*
X14229705Y-10819698D01*
X14229705Y-10819698D02*
X14239229Y-10829222D01*
X14239229Y-10829222D02*
X14248753Y-10848270D01*
X14248753Y-10848270D02*
X14248753Y-10895889D01*
X14248753Y-10895889D02*
X14239229Y-10914936D01*
X14239229Y-10914936D02*
X14229705Y-10924460D01*
X14229705Y-10924460D02*
X14210658Y-10933984D01*
X14210658Y-10933984D02*
X14153515Y-10933984D01*
X14153515Y-10933984D02*
X14134467Y-10924460D01*
X14134467Y-10924460D02*
X14124943Y-10914936D01*
X14372562Y-10733984D02*
X14391610Y-10733984D01*
X14391610Y-10733984D02*
X14410658Y-10743508D01*
X14410658Y-10743508D02*
X14420182Y-10753031D01*
X14420182Y-10753031D02*
X14429705Y-10772079D01*
X14429705Y-10772079D02*
X14439229Y-10810174D01*
X14439229Y-10810174D02*
X14439229Y-10857793D01*
X14439229Y-10857793D02*
X14429705Y-10895889D01*
X14429705Y-10895889D02*
X14420182Y-10914936D01*
X14420182Y-10914936D02*
X14410658Y-10924460D01*
X14410658Y-10924460D02*
X14391610Y-10933984D01*
X14391610Y-10933984D02*
X14372562Y-10933984D01*
X14372562Y-10933984D02*
X14353515Y-10924460D01*
X14353515Y-10924460D02*
X14343991Y-10914936D01*
X14343991Y-10914936D02*
X14334467Y-10895889D01*
X14334467Y-10895889D02*
X14324943Y-10857793D01*
X14324943Y-10857793D02*
X14324943Y-10810174D01*
X14324943Y-10810174D02*
X14334467Y-10772079D01*
X14334467Y-10772079D02*
X14343991Y-10753031D01*
X14343991Y-10753031D02*
X14353515Y-10743508D01*
X14353515Y-10743508D02*
X14372562Y-10733984D01*
X14563039Y-10733984D02*
X14582086Y-10733984D01*
X14582086Y-10733984D02*
X14601134Y-10743508D01*
X14601134Y-10743508D02*
X14610658Y-10753031D01*
X14610658Y-10753031D02*
X14620182Y-10772079D01*
X14620182Y-10772079D02*
X14629705Y-10810174D01*
X14629705Y-10810174D02*
X14629705Y-10857793D01*
X14629705Y-10857793D02*
X14620182Y-10895889D01*
X14620182Y-10895889D02*
X14610658Y-10914936D01*
X14610658Y-10914936D02*
X14601134Y-10924460D01*
X14601134Y-10924460D02*
X14582086Y-10933984D01*
X14582086Y-10933984D02*
X14563039Y-10933984D01*
X14563039Y-10933984D02*
X14543991Y-10924460D01*
X14543991Y-10924460D02*
X14534467Y-10914936D01*
X14534467Y-10914936D02*
X14524943Y-10895889D01*
X14524943Y-10895889D02*
X14515420Y-10857793D01*
X14515420Y-10857793D02*
X14515420Y-10810174D01*
X14515420Y-10810174D02*
X14524943Y-10772079D01*
X14524943Y-10772079D02*
X14534467Y-10753031D01*
X14534467Y-10753031D02*
X14543991Y-10743508D01*
X14543991Y-10743508D02*
X14563039Y-10733984D01*
X14715420Y-10933984D02*
X14715420Y-10800650D01*
X14715420Y-10819698D02*
X14724943Y-10810174D01*
X14724943Y-10810174D02*
X14743991Y-10800650D01*
X14743991Y-10800650D02*
X14772563Y-10800650D01*
X14772563Y-10800650D02*
X14791610Y-10810174D01*
X14791610Y-10810174D02*
X14801134Y-10829222D01*
X14801134Y-10829222D02*
X14801134Y-10933984D01*
X14801134Y-10829222D02*
X14810658Y-10810174D01*
X14810658Y-10810174D02*
X14829705Y-10800650D01*
X14829705Y-10800650D02*
X14858277Y-10800650D01*
X14858277Y-10800650D02*
X14877324Y-10810174D01*
X14877324Y-10810174D02*
X14886848Y-10829222D01*
X14886848Y-10829222D02*
X14886848Y-10933984D01*
X14982086Y-10933984D02*
X14982086Y-10800650D01*
X14982086Y-10819698D02*
X14991610Y-10810174D01*
X14991610Y-10810174D02*
X15010658Y-10800650D01*
X15010658Y-10800650D02*
X15039229Y-10800650D01*
X15039229Y-10800650D02*
X15058277Y-10810174D01*
X15058277Y-10810174D02*
X15067801Y-10829222D01*
X15067801Y-10829222D02*
X15067801Y-10933984D01*
X15067801Y-10829222D02*
X15077324Y-10810174D01*
X15077324Y-10810174D02*
X15096372Y-10800650D01*
X15096372Y-10800650D02*
X15124943Y-10800650D01*
X15124943Y-10800650D02*
X15143991Y-10810174D01*
X15143991Y-10810174D02*
X15153515Y-10829222D01*
X15153515Y-10829222D02*
X15153515Y-10933984D01*
X15543991Y-10724460D02*
X15372563Y-10981603D01*
X15801134Y-10733984D02*
X15820182Y-10733984D01*
X15820182Y-10733984D02*
X15839229Y-10743508D01*
X15839229Y-10743508D02*
X15848753Y-10753031D01*
X15848753Y-10753031D02*
X15858277Y-10772079D01*
X15858277Y-10772079D02*
X15867801Y-10810174D01*
X15867801Y-10810174D02*
X15867801Y-10857793D01*
X15867801Y-10857793D02*
X15858277Y-10895889D01*
X15858277Y-10895889D02*
X15848753Y-10914936D01*
X15848753Y-10914936D02*
X15839229Y-10924460D01*
X15839229Y-10924460D02*
X15820182Y-10933984D01*
X15820182Y-10933984D02*
X15801134Y-10933984D01*
X15801134Y-10933984D02*
X15782086Y-10924460D01*
X15782086Y-10924460D02*
X15772563Y-10914936D01*
X15772563Y-10914936D02*
X15763039Y-10895889D01*
X15763039Y-10895889D02*
X15753515Y-10857793D01*
X15753515Y-10857793D02*
X15753515Y-10810174D01*
X15753515Y-10810174D02*
X15763039Y-10772079D01*
X15763039Y-10772079D02*
X15772563Y-10753031D01*
X15772563Y-10753031D02*
X15782086Y-10743508D01*
X15782086Y-10743508D02*
X15801134Y-10733984D01*
X15953515Y-10914936D02*
X15963039Y-10924460D01*
X15963039Y-10924460D02*
X15953515Y-10933984D01*
X15953515Y-10933984D02*
X15943991Y-10924460D01*
X15943991Y-10924460D02*
X15953515Y-10914936D01*
X15953515Y-10914936D02*
X15953515Y-10933984D01*
X16086848Y-10733984D02*
X16105896Y-10733984D01*
X16105896Y-10733984D02*
X16124944Y-10743508D01*
X16124944Y-10743508D02*
X16134467Y-10753031D01*
X16134467Y-10753031D02*
X16143991Y-10772079D01*
X16143991Y-10772079D02*
X16153515Y-10810174D01*
X16153515Y-10810174D02*
X16153515Y-10857793D01*
X16153515Y-10857793D02*
X16143991Y-10895889D01*
X16143991Y-10895889D02*
X16134467Y-10914936D01*
X16134467Y-10914936D02*
X16124944Y-10924460D01*
X16124944Y-10924460D02*
X16105896Y-10933984D01*
X16105896Y-10933984D02*
X16086848Y-10933984D01*
X16086848Y-10933984D02*
X16067801Y-10924460D01*
X16067801Y-10924460D02*
X16058277Y-10914936D01*
X16058277Y-10914936D02*
X16048753Y-10895889D01*
X16048753Y-10895889D02*
X16039229Y-10857793D01*
X16039229Y-10857793D02*
X16039229Y-10810174D01*
X16039229Y-10810174D02*
X16048753Y-10772079D01*
X16048753Y-10772079D02*
X16058277Y-10753031D01*
X16058277Y-10753031D02*
X16067801Y-10743508D01*
X16067801Y-10743508D02*
X16086848Y-10733984D01*
X16343991Y-10933984D02*
X16229706Y-10933984D01*
X16286848Y-10933984D02*
X16286848Y-10733984D01*
X16286848Y-10733984D02*
X16267801Y-10762555D01*
X16267801Y-10762555D02*
X16248753Y-10781603D01*
X16248753Y-10781603D02*
X16229706Y-10791127D01*
X16534467Y-10933984D02*
X16420182Y-10933984D01*
X16477325Y-10933984D02*
X16477325Y-10733984D01*
X16477325Y-10733984D02*
X16458277Y-10762555D01*
X16458277Y-10762555D02*
X16439229Y-10781603D01*
X16439229Y-10781603D02*
X16420182Y-10791127D01*
X16648753Y-10819698D02*
X16629706Y-10810174D01*
X16629706Y-10810174D02*
X16620182Y-10800650D01*
X16620182Y-10800650D02*
X16610658Y-10781603D01*
X16610658Y-10781603D02*
X16610658Y-10772079D01*
X16610658Y-10772079D02*
X16620182Y-10753031D01*
X16620182Y-10753031D02*
X16629706Y-10743508D01*
X16629706Y-10743508D02*
X16648753Y-10733984D01*
X16648753Y-10733984D02*
X16686848Y-10733984D01*
X16686848Y-10733984D02*
X16705896Y-10743508D01*
X16705896Y-10743508D02*
X16715420Y-10753031D01*
X16715420Y-10753031D02*
X16724944Y-10772079D01*
X16724944Y-10772079D02*
X16724944Y-10781603D01*
X16724944Y-10781603D02*
X16715420Y-10800650D01*
X16715420Y-10800650D02*
X16705896Y-10810174D01*
X16705896Y-10810174D02*
X16686848Y-10819698D01*
X16686848Y-10819698D02*
X16648753Y-10819698D01*
X16648753Y-10819698D02*
X16629706Y-10829222D01*
X16629706Y-10829222D02*
X16620182Y-10838746D01*
X16620182Y-10838746D02*
X16610658Y-10857793D01*
X16610658Y-10857793D02*
X16610658Y-10895889D01*
X16610658Y-10895889D02*
X16620182Y-10914936D01*
X16620182Y-10914936D02*
X16629706Y-10924460D01*
X16629706Y-10924460D02*
X16648753Y-10933984D01*
X16648753Y-10933984D02*
X16686848Y-10933984D01*
X16686848Y-10933984D02*
X16705896Y-10924460D01*
X16705896Y-10924460D02*
X16715420Y-10914936D01*
X16715420Y-10914936D02*
X16724944Y-10895889D01*
X16724944Y-10895889D02*
X16724944Y-10857793D01*
X16724944Y-10857793D02*
X16715420Y-10838746D01*
X16715420Y-10838746D02*
X16705896Y-10829222D01*
X16705896Y-10829222D02*
X16686848Y-10819698D01*
X16801134Y-10733984D02*
X16801134Y-10772079D01*
X16877325Y-10733984D02*
X16877325Y-10772079D01*
X17172563Y-11010174D02*
X17163039Y-11000650D01*
X17163039Y-11000650D02*
X17143991Y-10972079D01*
X17143991Y-10972079D02*
X17134468Y-10953031D01*
X17134468Y-10953031D02*
X17124944Y-10924460D01*
X17124944Y-10924460D02*
X17115420Y-10876841D01*
X17115420Y-10876841D02*
X17115420Y-10838746D01*
X17115420Y-10838746D02*
X17124944Y-10791127D01*
X17124944Y-10791127D02*
X17134468Y-10762555D01*
X17134468Y-10762555D02*
X17143991Y-10743508D01*
X17143991Y-10743508D02*
X17163039Y-10714936D01*
X17163039Y-10714936D02*
X17172563Y-10705412D01*
X17229706Y-10733984D02*
X17353515Y-10733984D01*
X17353515Y-10733984D02*
X17286849Y-10810174D01*
X17286849Y-10810174D02*
X17315420Y-10810174D01*
X17315420Y-10810174D02*
X17334468Y-10819698D01*
X17334468Y-10819698D02*
X17343991Y-10829222D01*
X17343991Y-10829222D02*
X17353515Y-10848270D01*
X17353515Y-10848270D02*
X17353515Y-10895889D01*
X17353515Y-10895889D02*
X17343991Y-10914936D01*
X17343991Y-10914936D02*
X17334468Y-10924460D01*
X17334468Y-10924460D02*
X17315420Y-10933984D01*
X17315420Y-10933984D02*
X17258277Y-10933984D01*
X17258277Y-10933984D02*
X17239230Y-10924460D01*
X17239230Y-10924460D02*
X17229706Y-10914936D01*
X17591611Y-10933984D02*
X17591611Y-10733984D01*
X17677325Y-10933984D02*
X17677325Y-10829222D01*
X17677325Y-10829222D02*
X17667801Y-10810174D01*
X17667801Y-10810174D02*
X17648753Y-10800650D01*
X17648753Y-10800650D02*
X17620182Y-10800650D01*
X17620182Y-10800650D02*
X17601134Y-10810174D01*
X17601134Y-10810174D02*
X17591611Y-10819698D01*
X17801134Y-10933984D02*
X17782087Y-10924460D01*
X17782087Y-10924460D02*
X17772563Y-10914936D01*
X17772563Y-10914936D02*
X17763039Y-10895889D01*
X17763039Y-10895889D02*
X17763039Y-10838746D01*
X17763039Y-10838746D02*
X17772563Y-10819698D01*
X17772563Y-10819698D02*
X17782087Y-10810174D01*
X17782087Y-10810174D02*
X17801134Y-10800650D01*
X17801134Y-10800650D02*
X17829706Y-10800650D01*
X17829706Y-10800650D02*
X17848753Y-10810174D01*
X17848753Y-10810174D02*
X17858277Y-10819698D01*
X17858277Y-10819698D02*
X17867801Y-10838746D01*
X17867801Y-10838746D02*
X17867801Y-10895889D01*
X17867801Y-10895889D02*
X17858277Y-10914936D01*
X17858277Y-10914936D02*
X17848753Y-10924460D01*
X17848753Y-10924460D02*
X17829706Y-10933984D01*
X17829706Y-10933984D02*
X17801134Y-10933984D01*
X17982087Y-10933984D02*
X17963039Y-10924460D01*
X17963039Y-10924460D02*
X17953515Y-10905412D01*
X17953515Y-10905412D02*
X17953515Y-10733984D01*
X18134468Y-10924460D02*
X18115420Y-10933984D01*
X18115420Y-10933984D02*
X18077325Y-10933984D01*
X18077325Y-10933984D02*
X18058277Y-10924460D01*
X18058277Y-10924460D02*
X18048753Y-10905412D01*
X18048753Y-10905412D02*
X18048753Y-10829222D01*
X18048753Y-10829222D02*
X18058277Y-10810174D01*
X18058277Y-10810174D02*
X18077325Y-10800650D01*
X18077325Y-10800650D02*
X18115420Y-10800650D01*
X18115420Y-10800650D02*
X18134468Y-10810174D01*
X18134468Y-10810174D02*
X18143992Y-10829222D01*
X18143992Y-10829222D02*
X18143992Y-10848270D01*
X18143992Y-10848270D02*
X18048753Y-10867317D01*
X18220182Y-10924460D02*
X18239230Y-10933984D01*
X18239230Y-10933984D02*
X18277325Y-10933984D01*
X18277325Y-10933984D02*
X18296373Y-10924460D01*
X18296373Y-10924460D02*
X18305896Y-10905412D01*
X18305896Y-10905412D02*
X18305896Y-10895889D01*
X18305896Y-10895889D02*
X18296373Y-10876841D01*
X18296373Y-10876841D02*
X18277325Y-10867317D01*
X18277325Y-10867317D02*
X18248753Y-10867317D01*
X18248753Y-10867317D02*
X18229706Y-10857793D01*
X18229706Y-10857793D02*
X18220182Y-10838746D01*
X18220182Y-10838746D02*
X18220182Y-10829222D01*
X18220182Y-10829222D02*
X18229706Y-10810174D01*
X18229706Y-10810174D02*
X18248753Y-10800650D01*
X18248753Y-10800650D02*
X18277325Y-10800650D01*
X18277325Y-10800650D02*
X18296373Y-10810174D01*
X18372563Y-11010174D02*
X18382087Y-11000650D01*
X18382087Y-11000650D02*
X18401134Y-10972079D01*
X18401134Y-10972079D02*
X18410658Y-10953031D01*
X18410658Y-10953031D02*
X18420182Y-10924460D01*
X18420182Y-10924460D02*
X18429706Y-10876841D01*
X18429706Y-10876841D02*
X18429706Y-10838746D01*
X18429706Y-10838746D02*
X18420182Y-10791127D01*
X18420182Y-10791127D02*
X18410658Y-10762555D01*
X18410658Y-10762555D02*
X18401134Y-10743508D01*
X18401134Y-10743508D02*
X18382087Y-10714936D01*
X18382087Y-10714936D02*
X18372563Y-10705412D01*
D12*
X13597500Y-11106500D02*
G75*
G02*
X13537500Y-11106500I-30000J0D01*
G01*
X13537500Y-11106500D02*
G75*
G02*
X13597500Y-11106500I30000J0D01*
G01*
D11*
X13896372Y-10997984D02*
X13915420Y-10997984D01*
X13915420Y-10997984D02*
X13934467Y-11007508D01*
X13934467Y-11007508D02*
X13943991Y-11017031D01*
X13943991Y-11017031D02*
X13953515Y-11036079D01*
X13953515Y-11036079D02*
X13963039Y-11074174D01*
X13963039Y-11074174D02*
X13963039Y-11121793D01*
X13963039Y-11121793D02*
X13953515Y-11159889D01*
X13953515Y-11159889D02*
X13943991Y-11178936D01*
X13943991Y-11178936D02*
X13934467Y-11188460D01*
X13934467Y-11188460D02*
X13915420Y-11197984D01*
X13915420Y-11197984D02*
X13896372Y-11197984D01*
X13896372Y-11197984D02*
X13877324Y-11188460D01*
X13877324Y-11188460D02*
X13867801Y-11178936D01*
X13867801Y-11178936D02*
X13858277Y-11159889D01*
X13858277Y-11159889D02*
X13848753Y-11121793D01*
X13848753Y-11121793D02*
X13848753Y-11074174D01*
X13848753Y-11074174D02*
X13858277Y-11036079D01*
X13858277Y-11036079D02*
X13867801Y-11017031D01*
X13867801Y-11017031D02*
X13877324Y-11007508D01*
X13877324Y-11007508D02*
X13896372Y-10997984D01*
X14048753Y-11178936D02*
X14058277Y-11188460D01*
X14058277Y-11188460D02*
X14048753Y-11197984D01*
X14048753Y-11197984D02*
X14039229Y-11188460D01*
X14039229Y-11188460D02*
X14048753Y-11178936D01*
X14048753Y-11178936D02*
X14048753Y-11197984D01*
X14229705Y-10997984D02*
X14191610Y-10997984D01*
X14191610Y-10997984D02*
X14172562Y-11007508D01*
X14172562Y-11007508D02*
X14163039Y-11017031D01*
X14163039Y-11017031D02*
X14143991Y-11045603D01*
X14143991Y-11045603D02*
X14134467Y-11083698D01*
X14134467Y-11083698D02*
X14134467Y-11159889D01*
X14134467Y-11159889D02*
X14143991Y-11178936D01*
X14143991Y-11178936D02*
X14153515Y-11188460D01*
X14153515Y-11188460D02*
X14172562Y-11197984D01*
X14172562Y-11197984D02*
X14210658Y-11197984D01*
X14210658Y-11197984D02*
X14229705Y-11188460D01*
X14229705Y-11188460D02*
X14239229Y-11178936D01*
X14239229Y-11178936D02*
X14248753Y-11159889D01*
X14248753Y-11159889D02*
X14248753Y-11112270D01*
X14248753Y-11112270D02*
X14239229Y-11093222D01*
X14239229Y-11093222D02*
X14229705Y-11083698D01*
X14229705Y-11083698D02*
X14210658Y-11074174D01*
X14210658Y-11074174D02*
X14172562Y-11074174D01*
X14172562Y-11074174D02*
X14153515Y-11083698D01*
X14153515Y-11083698D02*
X14143991Y-11093222D01*
X14143991Y-11093222D02*
X14134467Y-11112270D01*
X14372562Y-10997984D02*
X14391610Y-10997984D01*
X14391610Y-10997984D02*
X14410658Y-11007508D01*
X14410658Y-11007508D02*
X14420182Y-11017031D01*
X14420182Y-11017031D02*
X14429705Y-11036079D01*
X14429705Y-11036079D02*
X14439229Y-11074174D01*
X14439229Y-11074174D02*
X14439229Y-11121793D01*
X14439229Y-11121793D02*
X14429705Y-11159889D01*
X14429705Y-11159889D02*
X14420182Y-11178936D01*
X14420182Y-11178936D02*
X14410658Y-11188460D01*
X14410658Y-11188460D02*
X14391610Y-11197984D01*
X14391610Y-11197984D02*
X14372562Y-11197984D01*
X14372562Y-11197984D02*
X14353515Y-11188460D01*
X14353515Y-11188460D02*
X14343991Y-11178936D01*
X14343991Y-11178936D02*
X14334467Y-11159889D01*
X14334467Y-11159889D02*
X14324943Y-11121793D01*
X14324943Y-11121793D02*
X14324943Y-11074174D01*
X14324943Y-11074174D02*
X14334467Y-11036079D01*
X14334467Y-11036079D02*
X14343991Y-11017031D01*
X14343991Y-11017031D02*
X14353515Y-11007508D01*
X14353515Y-11007508D02*
X14372562Y-10997984D01*
X14563039Y-10997984D02*
X14582086Y-10997984D01*
X14582086Y-10997984D02*
X14601134Y-11007508D01*
X14601134Y-11007508D02*
X14610658Y-11017031D01*
X14610658Y-11017031D02*
X14620182Y-11036079D01*
X14620182Y-11036079D02*
X14629705Y-11074174D01*
X14629705Y-11074174D02*
X14629705Y-11121793D01*
X14629705Y-11121793D02*
X14620182Y-11159889D01*
X14620182Y-11159889D02*
X14610658Y-11178936D01*
X14610658Y-11178936D02*
X14601134Y-11188460D01*
X14601134Y-11188460D02*
X14582086Y-11197984D01*
X14582086Y-11197984D02*
X14563039Y-11197984D01*
X14563039Y-11197984D02*
X14543991Y-11188460D01*
X14543991Y-11188460D02*
X14534467Y-11178936D01*
X14534467Y-11178936D02*
X14524943Y-11159889D01*
X14524943Y-11159889D02*
X14515420Y-11121793D01*
X14515420Y-11121793D02*
X14515420Y-11074174D01*
X14515420Y-11074174D02*
X14524943Y-11036079D01*
X14524943Y-11036079D02*
X14534467Y-11017031D01*
X14534467Y-11017031D02*
X14543991Y-11007508D01*
X14543991Y-11007508D02*
X14563039Y-10997984D01*
X14715420Y-11197984D02*
X14715420Y-11064650D01*
X14715420Y-11083698D02*
X14724943Y-11074174D01*
X14724943Y-11074174D02*
X14743991Y-11064650D01*
X14743991Y-11064650D02*
X14772563Y-11064650D01*
X14772563Y-11064650D02*
X14791610Y-11074174D01*
X14791610Y-11074174D02*
X14801134Y-11093222D01*
X14801134Y-11093222D02*
X14801134Y-11197984D01*
X14801134Y-11093222D02*
X14810658Y-11074174D01*
X14810658Y-11074174D02*
X14829705Y-11064650D01*
X14829705Y-11064650D02*
X14858277Y-11064650D01*
X14858277Y-11064650D02*
X14877324Y-11074174D01*
X14877324Y-11074174D02*
X14886848Y-11093222D01*
X14886848Y-11093222D02*
X14886848Y-11197984D01*
X14982086Y-11197984D02*
X14982086Y-11064650D01*
X14982086Y-11083698D02*
X14991610Y-11074174D01*
X14991610Y-11074174D02*
X15010658Y-11064650D01*
X15010658Y-11064650D02*
X15039229Y-11064650D01*
X15039229Y-11064650D02*
X15058277Y-11074174D01*
X15058277Y-11074174D02*
X15067801Y-11093222D01*
X15067801Y-11093222D02*
X15067801Y-11197984D01*
X15067801Y-11093222D02*
X15077324Y-11074174D01*
X15077324Y-11074174D02*
X15096372Y-11064650D01*
X15096372Y-11064650D02*
X15124943Y-11064650D01*
X15124943Y-11064650D02*
X15143991Y-11074174D01*
X15143991Y-11074174D02*
X15153515Y-11093222D01*
X15153515Y-11093222D02*
X15153515Y-11197984D01*
X15543991Y-10988460D02*
X15372563Y-11245603D01*
X15801134Y-10997984D02*
X15820182Y-10997984D01*
X15820182Y-10997984D02*
X15839229Y-11007508D01*
X15839229Y-11007508D02*
X15848753Y-11017031D01*
X15848753Y-11017031D02*
X15858277Y-11036079D01*
X15858277Y-11036079D02*
X15867801Y-11074174D01*
X15867801Y-11074174D02*
X15867801Y-11121793D01*
X15867801Y-11121793D02*
X15858277Y-11159889D01*
X15858277Y-11159889D02*
X15848753Y-11178936D01*
X15848753Y-11178936D02*
X15839229Y-11188460D01*
X15839229Y-11188460D02*
X15820182Y-11197984D01*
X15820182Y-11197984D02*
X15801134Y-11197984D01*
X15801134Y-11197984D02*
X15782086Y-11188460D01*
X15782086Y-11188460D02*
X15772563Y-11178936D01*
X15772563Y-11178936D02*
X15763039Y-11159889D01*
X15763039Y-11159889D02*
X15753515Y-11121793D01*
X15753515Y-11121793D02*
X15753515Y-11074174D01*
X15753515Y-11074174D02*
X15763039Y-11036079D01*
X15763039Y-11036079D02*
X15772563Y-11017031D01*
X15772563Y-11017031D02*
X15782086Y-11007508D01*
X15782086Y-11007508D02*
X15801134Y-10997984D01*
X15953515Y-11178936D02*
X15963039Y-11188460D01*
X15963039Y-11188460D02*
X15953515Y-11197984D01*
X15953515Y-11197984D02*
X15943991Y-11188460D01*
X15943991Y-11188460D02*
X15953515Y-11178936D01*
X15953515Y-11178936D02*
X15953515Y-11197984D01*
X16086848Y-10997984D02*
X16105896Y-10997984D01*
X16105896Y-10997984D02*
X16124944Y-11007508D01*
X16124944Y-11007508D02*
X16134467Y-11017031D01*
X16134467Y-11017031D02*
X16143991Y-11036079D01*
X16143991Y-11036079D02*
X16153515Y-11074174D01*
X16153515Y-11074174D02*
X16153515Y-11121793D01*
X16153515Y-11121793D02*
X16143991Y-11159889D01*
X16143991Y-11159889D02*
X16134467Y-11178936D01*
X16134467Y-11178936D02*
X16124944Y-11188460D01*
X16124944Y-11188460D02*
X16105896Y-11197984D01*
X16105896Y-11197984D02*
X16086848Y-11197984D01*
X16086848Y-11197984D02*
X16067801Y-11188460D01*
X16067801Y-11188460D02*
X16058277Y-11178936D01*
X16058277Y-11178936D02*
X16048753Y-11159889D01*
X16048753Y-11159889D02*
X16039229Y-11121793D01*
X16039229Y-11121793D02*
X16039229Y-11074174D01*
X16039229Y-11074174D02*
X16048753Y-11036079D01*
X16048753Y-11036079D02*
X16058277Y-11017031D01*
X16058277Y-11017031D02*
X16067801Y-11007508D01*
X16067801Y-11007508D02*
X16086848Y-10997984D01*
X16229706Y-11017031D02*
X16239229Y-11007508D01*
X16239229Y-11007508D02*
X16258277Y-10997984D01*
X16258277Y-10997984D02*
X16305896Y-10997984D01*
X16305896Y-10997984D02*
X16324944Y-11007508D01*
X16324944Y-11007508D02*
X16334467Y-11017031D01*
X16334467Y-11017031D02*
X16343991Y-11036079D01*
X16343991Y-11036079D02*
X16343991Y-11055127D01*
X16343991Y-11055127D02*
X16334467Y-11083698D01*
X16334467Y-11083698D02*
X16220182Y-11197984D01*
X16220182Y-11197984D02*
X16343991Y-11197984D01*
X16410658Y-10997984D02*
X16534467Y-10997984D01*
X16534467Y-10997984D02*
X16467801Y-11074174D01*
X16467801Y-11074174D02*
X16496372Y-11074174D01*
X16496372Y-11074174D02*
X16515420Y-11083698D01*
X16515420Y-11083698D02*
X16524944Y-11093222D01*
X16524944Y-11093222D02*
X16534467Y-11112270D01*
X16534467Y-11112270D02*
X16534467Y-11159889D01*
X16534467Y-11159889D02*
X16524944Y-11178936D01*
X16524944Y-11178936D02*
X16515420Y-11188460D01*
X16515420Y-11188460D02*
X16496372Y-11197984D01*
X16496372Y-11197984D02*
X16439229Y-11197984D01*
X16439229Y-11197984D02*
X16420182Y-11188460D01*
X16420182Y-11188460D02*
X16410658Y-11178936D01*
X16705896Y-10997984D02*
X16667801Y-10997984D01*
X16667801Y-10997984D02*
X16648753Y-11007508D01*
X16648753Y-11007508D02*
X16639229Y-11017031D01*
X16639229Y-11017031D02*
X16620182Y-11045603D01*
X16620182Y-11045603D02*
X16610658Y-11083698D01*
X16610658Y-11083698D02*
X16610658Y-11159889D01*
X16610658Y-11159889D02*
X16620182Y-11178936D01*
X16620182Y-11178936D02*
X16629706Y-11188460D01*
X16629706Y-11188460D02*
X16648753Y-11197984D01*
X16648753Y-11197984D02*
X16686848Y-11197984D01*
X16686848Y-11197984D02*
X16705896Y-11188460D01*
X16705896Y-11188460D02*
X16715420Y-11178936D01*
X16715420Y-11178936D02*
X16724944Y-11159889D01*
X16724944Y-11159889D02*
X16724944Y-11112270D01*
X16724944Y-11112270D02*
X16715420Y-11093222D01*
X16715420Y-11093222D02*
X16705896Y-11083698D01*
X16705896Y-11083698D02*
X16686848Y-11074174D01*
X16686848Y-11074174D02*
X16648753Y-11074174D01*
X16648753Y-11074174D02*
X16629706Y-11083698D01*
X16629706Y-11083698D02*
X16620182Y-11093222D01*
X16620182Y-11093222D02*
X16610658Y-11112270D01*
X16801134Y-10997984D02*
X16801134Y-11036079D01*
X16877325Y-10997984D02*
X16877325Y-11036079D01*
X17172563Y-11274174D02*
X17163039Y-11264650D01*
X17163039Y-11264650D02*
X17143991Y-11236079D01*
X17143991Y-11236079D02*
X17134468Y-11217031D01*
X17134468Y-11217031D02*
X17124944Y-11188460D01*
X17124944Y-11188460D02*
X17115420Y-11140841D01*
X17115420Y-11140841D02*
X17115420Y-11102746D01*
X17115420Y-11102746D02*
X17124944Y-11055127D01*
X17124944Y-11055127D02*
X17134468Y-11026555D01*
X17134468Y-11026555D02*
X17143991Y-11007508D01*
X17143991Y-11007508D02*
X17163039Y-10978936D01*
X17163039Y-10978936D02*
X17172563Y-10969412D01*
X17286849Y-10997984D02*
X17305896Y-10997984D01*
X17305896Y-10997984D02*
X17324944Y-11007508D01*
X17324944Y-11007508D02*
X17334468Y-11017031D01*
X17334468Y-11017031D02*
X17343991Y-11036079D01*
X17343991Y-11036079D02*
X17353515Y-11074174D01*
X17353515Y-11074174D02*
X17353515Y-11121793D01*
X17353515Y-11121793D02*
X17343991Y-11159889D01*
X17343991Y-11159889D02*
X17334468Y-11178936D01*
X17334468Y-11178936D02*
X17324944Y-11188460D01*
X17324944Y-11188460D02*
X17305896Y-11197984D01*
X17305896Y-11197984D02*
X17286849Y-11197984D01*
X17286849Y-11197984D02*
X17267801Y-11188460D01*
X17267801Y-11188460D02*
X17258277Y-11178936D01*
X17258277Y-11178936D02*
X17248753Y-11159889D01*
X17248753Y-11159889D02*
X17239230Y-11121793D01*
X17239230Y-11121793D02*
X17239230Y-11074174D01*
X17239230Y-11074174D02*
X17248753Y-11036079D01*
X17248753Y-11036079D02*
X17258277Y-11017031D01*
X17258277Y-11017031D02*
X17267801Y-11007508D01*
X17267801Y-11007508D02*
X17286849Y-10997984D01*
X17591611Y-11197984D02*
X17591611Y-10997984D01*
X17677325Y-11197984D02*
X17677325Y-11093222D01*
X17677325Y-11093222D02*
X17667801Y-11074174D01*
X17667801Y-11074174D02*
X17648753Y-11064650D01*
X17648753Y-11064650D02*
X17620182Y-11064650D01*
X17620182Y-11064650D02*
X17601134Y-11074174D01*
X17601134Y-11074174D02*
X17591611Y-11083698D01*
X17801134Y-11197984D02*
X17782087Y-11188460D01*
X17782087Y-11188460D02*
X17772563Y-11178936D01*
X17772563Y-11178936D02*
X17763039Y-11159889D01*
X17763039Y-11159889D02*
X17763039Y-11102746D01*
X17763039Y-11102746D02*
X17772563Y-11083698D01*
X17772563Y-11083698D02*
X17782087Y-11074174D01*
X17782087Y-11074174D02*
X17801134Y-11064650D01*
X17801134Y-11064650D02*
X17829706Y-11064650D01*
X17829706Y-11064650D02*
X17848753Y-11074174D01*
X17848753Y-11074174D02*
X17858277Y-11083698D01*
X17858277Y-11083698D02*
X17867801Y-11102746D01*
X17867801Y-11102746D02*
X17867801Y-11159889D01*
X17867801Y-11159889D02*
X17858277Y-11178936D01*
X17858277Y-11178936D02*
X17848753Y-11188460D01*
X17848753Y-11188460D02*
X17829706Y-11197984D01*
X17829706Y-11197984D02*
X17801134Y-11197984D01*
X17982087Y-11197984D02*
X17963039Y-11188460D01*
X17963039Y-11188460D02*
X17953515Y-11169412D01*
X17953515Y-11169412D02*
X17953515Y-10997984D01*
X18134468Y-11188460D02*
X18115420Y-11197984D01*
X18115420Y-11197984D02*
X18077325Y-11197984D01*
X18077325Y-11197984D02*
X18058277Y-11188460D01*
X18058277Y-11188460D02*
X18048753Y-11169412D01*
X18048753Y-11169412D02*
X18048753Y-11093222D01*
X18048753Y-11093222D02*
X18058277Y-11074174D01*
X18058277Y-11074174D02*
X18077325Y-11064650D01*
X18077325Y-11064650D02*
X18115420Y-11064650D01*
X18115420Y-11064650D02*
X18134468Y-11074174D01*
X18134468Y-11074174D02*
X18143992Y-11093222D01*
X18143992Y-11093222D02*
X18143992Y-11112270D01*
X18143992Y-11112270D02*
X18048753Y-11131317D01*
X18220182Y-11188460D02*
X18239230Y-11197984D01*
X18239230Y-11197984D02*
X18277325Y-11197984D01*
X18277325Y-11197984D02*
X18296373Y-11188460D01*
X18296373Y-11188460D02*
X18305896Y-11169412D01*
X18305896Y-11169412D02*
X18305896Y-11159889D01*
X18305896Y-11159889D02*
X18296373Y-11140841D01*
X18296373Y-11140841D02*
X18277325Y-11131317D01*
X18277325Y-11131317D02*
X18248753Y-11131317D01*
X18248753Y-11131317D02*
X18229706Y-11121793D01*
X18229706Y-11121793D02*
X18220182Y-11102746D01*
X18220182Y-11102746D02*
X18220182Y-11093222D01*
X18220182Y-11093222D02*
X18229706Y-11074174D01*
X18229706Y-11074174D02*
X18248753Y-11064650D01*
X18248753Y-11064650D02*
X18277325Y-11064650D01*
X18277325Y-11064650D02*
X18296373Y-11074174D01*
X18543992Y-11121793D02*
X18696373Y-11121793D01*
X18620182Y-11197984D02*
X18620182Y-11045603D01*
X18934468Y-11017031D02*
X18943992Y-11007508D01*
X18943992Y-11007508D02*
X18963039Y-10997984D01*
X18963039Y-10997984D02*
X19010658Y-10997984D01*
X19010658Y-10997984D02*
X19029706Y-11007508D01*
X19029706Y-11007508D02*
X19039230Y-11017031D01*
X19039230Y-11017031D02*
X19048754Y-11036079D01*
X19048754Y-11036079D02*
X19048754Y-11055127D01*
X19048754Y-11055127D02*
X19039230Y-11083698D01*
X19039230Y-11083698D02*
X18924944Y-11197984D01*
X18924944Y-11197984D02*
X19048754Y-11197984D01*
X19277325Y-11188460D02*
X19296373Y-11197984D01*
X19296373Y-11197984D02*
X19334468Y-11197984D01*
X19334468Y-11197984D02*
X19353516Y-11188460D01*
X19353516Y-11188460D02*
X19363039Y-11169412D01*
X19363039Y-11169412D02*
X19363039Y-11159889D01*
X19363039Y-11159889D02*
X19353516Y-11140841D01*
X19353516Y-11140841D02*
X19334468Y-11131317D01*
X19334468Y-11131317D02*
X19305896Y-11131317D01*
X19305896Y-11131317D02*
X19286849Y-11121793D01*
X19286849Y-11121793D02*
X19277325Y-11102746D01*
X19277325Y-11102746D02*
X19277325Y-11093222D01*
X19277325Y-11093222D02*
X19286849Y-11074174D01*
X19286849Y-11074174D02*
X19305896Y-11064650D01*
X19305896Y-11064650D02*
X19334468Y-11064650D01*
X19334468Y-11064650D02*
X19353516Y-11074174D01*
X19477325Y-11197984D02*
X19458277Y-11188460D01*
X19458277Y-11188460D02*
X19448754Y-11169412D01*
X19448754Y-11169412D02*
X19448754Y-10997984D01*
X19582087Y-11197984D02*
X19563039Y-11188460D01*
X19563039Y-11188460D02*
X19553516Y-11178936D01*
X19553516Y-11178936D02*
X19543992Y-11159889D01*
X19543992Y-11159889D02*
X19543992Y-11102746D01*
X19543992Y-11102746D02*
X19553516Y-11083698D01*
X19553516Y-11083698D02*
X19563039Y-11074174D01*
X19563039Y-11074174D02*
X19582087Y-11064650D01*
X19582087Y-11064650D02*
X19610658Y-11064650D01*
X19610658Y-11064650D02*
X19629706Y-11074174D01*
X19629706Y-11074174D02*
X19639230Y-11083698D01*
X19639230Y-11083698D02*
X19648754Y-11102746D01*
X19648754Y-11102746D02*
X19648754Y-11159889D01*
X19648754Y-11159889D02*
X19639230Y-11178936D01*
X19639230Y-11178936D02*
X19629706Y-11188460D01*
X19629706Y-11188460D02*
X19610658Y-11197984D01*
X19610658Y-11197984D02*
X19582087Y-11197984D01*
X19705897Y-11064650D02*
X19782087Y-11064650D01*
X19734468Y-10997984D02*
X19734468Y-11169412D01*
X19734468Y-11169412D02*
X19743992Y-11188460D01*
X19743992Y-11188460D02*
X19763039Y-11197984D01*
X19763039Y-11197984D02*
X19782087Y-11197984D01*
X19839230Y-11188460D02*
X19858277Y-11197984D01*
X19858277Y-11197984D02*
X19896373Y-11197984D01*
X19896373Y-11197984D02*
X19915420Y-11188460D01*
X19915420Y-11188460D02*
X19924944Y-11169412D01*
X19924944Y-11169412D02*
X19924944Y-11159889D01*
X19924944Y-11159889D02*
X19915420Y-11140841D01*
X19915420Y-11140841D02*
X19896373Y-11131317D01*
X19896373Y-11131317D02*
X19867801Y-11131317D01*
X19867801Y-11131317D02*
X19848754Y-11121793D01*
X19848754Y-11121793D02*
X19839230Y-11102746D01*
X19839230Y-11102746D02*
X19839230Y-11093222D01*
X19839230Y-11093222D02*
X19848754Y-11074174D01*
X19848754Y-11074174D02*
X19867801Y-11064650D01*
X19867801Y-11064650D02*
X19896373Y-11064650D01*
X19896373Y-11064650D02*
X19915420Y-11074174D01*
X19991611Y-11274174D02*
X20001135Y-11264650D01*
X20001135Y-11264650D02*
X20020182Y-11236079D01*
X20020182Y-11236079D02*
X20029706Y-11217031D01*
X20029706Y-11217031D02*
X20039230Y-11188460D01*
X20039230Y-11188460D02*
X20048754Y-11140841D01*
X20048754Y-11140841D02*
X20048754Y-11102746D01*
X20048754Y-11102746D02*
X20039230Y-11055127D01*
X20039230Y-11055127D02*
X20029706Y-11026555D01*
X20029706Y-11026555D02*
X20020182Y-11007508D01*
X20020182Y-11007508D02*
X20001135Y-10978936D01*
X20001135Y-10978936D02*
X19991611Y-10969412D01*
M02*
