G04 #@! TF.GenerationSoftware,KiCad,Pcbnew,9.0.3*
G04 #@! TF.CreationDate,2025-09-05T20:04:58+02:00*
G04 #@! TF.ProjectId,SwitchHolderAdapter,53776974-6368-4486-9f6c-646572416461,rev?*
G04 #@! TF.SameCoordinates,Original*
G04 #@! TF.FileFunction,Legend,Top*
G04 #@! TF.FilePolarity,Positive*
%FSLAX46Y46*%
G04 Gerber Fmt 4.6, Leading zero omitted, Abs format (unit mm)*
G04 Created by KiCad (PCBNEW 9.0.3) date 2025-09-05 20:04:58*
%MOMM*%
%LPD*%
G01*
G04 APERTURE LIST*
G04 Aperture macros list*
%AMRoundRect*
0 Rectangle with rounded corners*
0 $1 Rounding radius*
0 $2 $3 $4 $5 $6 $7 $8 $9 X,Y pos of 4 corners*
0 Add a 4 corners polygon primitive as box body*
4,1,4,$2,$3,$4,$5,$6,$7,$8,$9,$2,$3,0*
0 Add four circle primitives for the rounded corners*
1,1,$1+$1,$2,$3*
1,1,$1+$1,$4,$5*
1,1,$1+$1,$6,$7*
1,1,$1+$1,$8,$9*
0 Add four rect primitives between the rounded corners*
20,1,$1+$1,$2,$3,$4,$5,0*
20,1,$1+$1,$4,$5,$6,$7,0*
20,1,$1+$1,$6,$7,$8,$9,0*
20,1,$1+$1,$8,$9,$2,$3,0*%
G04 Aperture macros list end*
%ADD10C,0.125000*%
%ADD11C,0.150000*%
%ADD12C,0.120000*%
%ADD13C,0.100000*%
%ADD14RoundRect,0.135000X-0.185000X0.135000X-0.185000X-0.135000X0.185000X-0.135000X0.185000X0.135000X0*%
%ADD15RoundRect,0.147500X-0.172500X0.147500X-0.172500X-0.147500X0.172500X-0.147500X0.172500X0.147500X0*%
%ADD16RoundRect,0.175000X-0.425000X0.175000X-0.425000X-0.175000X0.425000X-0.175000X0.425000X0.175000X0*%
%ADD17RoundRect,0.190000X0.410000X-0.190000X0.410000X0.190000X-0.410000X0.190000X-0.410000X-0.190000X0*%
%ADD18RoundRect,0.200000X0.400000X-0.200000X0.400000X0.200000X-0.400000X0.200000X-0.400000X-0.200000X0*%
%ADD19RoundRect,0.175000X0.425000X-0.175000X0.425000X0.175000X-0.425000X0.175000X-0.425000X-0.175000X0*%
%ADD20RoundRect,0.190000X-0.410000X0.190000X-0.410000X-0.190000X0.410000X-0.190000X0.410000X0.190000X0*%
%ADD21RoundRect,0.200000X-0.400000X0.200000X-0.400000X-0.200000X0.400000X-0.200000X0.400000X0.200000X0*%
%ADD22RoundRect,0.250000X-0.425000X0.650000X-0.425000X-0.650000X0.425000X-0.650000X0.425000X0.650000X0*%
%ADD23RoundRect,0.250000X-0.500000X0.650000X-0.500000X-0.650000X0.500000X-0.650000X0.500000X0.650000X0*%
%ADD24RoundRect,0.325000X0.325000X1.175000X-0.325000X1.175000X-0.325000X-1.175000X0.325000X-1.175000X0*%
%ADD25O,1.200000X2.900000*%
%ADD26RoundRect,0.250000X0.425000X-0.650000X0.425000X0.650000X-0.425000X0.650000X-0.425000X-0.650000X0*%
%ADD27RoundRect,0.250000X0.500000X-0.650000X0.500000X0.650000X-0.500000X0.650000X-0.500000X-0.650000X0*%
G04 APERTURE END LIST*
D10*
X153182309Y-83048716D02*
X152682309Y-83048716D01*
X152682309Y-83048716D02*
X152682309Y-82858240D01*
X152682309Y-82858240D02*
X152706119Y-82810621D01*
X152706119Y-82810621D02*
X152729928Y-82786811D01*
X152729928Y-82786811D02*
X152777547Y-82763002D01*
X152777547Y-82763002D02*
X152848976Y-82763002D01*
X152848976Y-82763002D02*
X152896595Y-82786811D01*
X152896595Y-82786811D02*
X152920404Y-82810621D01*
X152920404Y-82810621D02*
X152944214Y-82858240D01*
X152944214Y-82858240D02*
X152944214Y-83048716D01*
X152682309Y-82596335D02*
X153182309Y-82477287D01*
X153182309Y-82477287D02*
X152825166Y-82382049D01*
X152825166Y-82382049D02*
X153182309Y-82286811D01*
X153182309Y-82286811D02*
X152682309Y-82167764D01*
X153182309Y-81691573D02*
X152944214Y-81858239D01*
X153182309Y-81977287D02*
X152682309Y-81977287D01*
X152682309Y-81977287D02*
X152682309Y-81786811D01*
X152682309Y-81786811D02*
X152706119Y-81739192D01*
X152706119Y-81739192D02*
X152729928Y-81715382D01*
X152729928Y-81715382D02*
X152777547Y-81691573D01*
X152777547Y-81691573D02*
X152848976Y-81691573D01*
X152848976Y-81691573D02*
X152896595Y-81715382D01*
X152896595Y-81715382D02*
X152920404Y-81739192D01*
X152920404Y-81739192D02*
X152944214Y-81786811D01*
X152944214Y-81786811D02*
X152944214Y-81977287D01*
D11*
X140545180Y-94089285D02*
X139830895Y-94089285D01*
X139830895Y-94089285D02*
X139688038Y-94041666D01*
X139688038Y-94041666D02*
X139592800Y-93946428D01*
X139592800Y-93946428D02*
X139545180Y-93803571D01*
X139545180Y-93803571D02*
X139545180Y-93708333D01*
X139545180Y-95089285D02*
X139545180Y-94517857D01*
X139545180Y-94803571D02*
X140545180Y-94803571D01*
X140545180Y-94803571D02*
X140402323Y-94708333D01*
X140402323Y-94708333D02*
X140307085Y-94613095D01*
X140307085Y-94613095D02*
X140259466Y-94517857D01*
X140545180Y-95708333D02*
X140545180Y-95803571D01*
X140545180Y-95803571D02*
X140497561Y-95898809D01*
X140497561Y-95898809D02*
X140449942Y-95946428D01*
X140449942Y-95946428D02*
X140354704Y-95994047D01*
X140354704Y-95994047D02*
X140164228Y-96041666D01*
X140164228Y-96041666D02*
X139926133Y-96041666D01*
X139926133Y-96041666D02*
X139735657Y-95994047D01*
X139735657Y-95994047D02*
X139640419Y-95946428D01*
X139640419Y-95946428D02*
X139592800Y-95898809D01*
X139592800Y-95898809D02*
X139545180Y-95803571D01*
X139545180Y-95803571D02*
X139545180Y-95708333D01*
X139545180Y-95708333D02*
X139592800Y-95613095D01*
X139592800Y-95613095D02*
X139640419Y-95565476D01*
X139640419Y-95565476D02*
X139735657Y-95517857D01*
X139735657Y-95517857D02*
X139926133Y-95470238D01*
X139926133Y-95470238D02*
X140164228Y-95470238D01*
X140164228Y-95470238D02*
X140354704Y-95517857D01*
X140354704Y-95517857D02*
X140449942Y-95565476D01*
X140449942Y-95565476D02*
X140497561Y-95613095D01*
X140497561Y-95613095D02*
X140545180Y-95708333D01*
X140545180Y-96375000D02*
X140545180Y-96994047D01*
X140545180Y-96994047D02*
X140164228Y-96660714D01*
X140164228Y-96660714D02*
X140164228Y-96803571D01*
X140164228Y-96803571D02*
X140116609Y-96898809D01*
X140116609Y-96898809D02*
X140068990Y-96946428D01*
X140068990Y-96946428D02*
X139973752Y-96994047D01*
X139973752Y-96994047D02*
X139735657Y-96994047D01*
X139735657Y-96994047D02*
X139640419Y-96946428D01*
X139640419Y-96946428D02*
X139592800Y-96898809D01*
X139592800Y-96898809D02*
X139545180Y-96803571D01*
X139545180Y-96803571D02*
X139545180Y-96517857D01*
X139545180Y-96517857D02*
X139592800Y-96422619D01*
X139592800Y-96422619D02*
X139640419Y-96375000D01*
X143214285Y-78454819D02*
X143214285Y-79169104D01*
X143214285Y-79169104D02*
X143166666Y-79311961D01*
X143166666Y-79311961D02*
X143071428Y-79407200D01*
X143071428Y-79407200D02*
X142928571Y-79454819D01*
X142928571Y-79454819D02*
X142833333Y-79454819D01*
X144214285Y-79454819D02*
X143642857Y-79454819D01*
X143928571Y-79454819D02*
X143928571Y-78454819D01*
X143928571Y-78454819D02*
X143833333Y-78597676D01*
X143833333Y-78597676D02*
X143738095Y-78692914D01*
X143738095Y-78692914D02*
X143642857Y-78740533D01*
X144833333Y-78454819D02*
X144928571Y-78454819D01*
X144928571Y-78454819D02*
X145023809Y-78502438D01*
X145023809Y-78502438D02*
X145071428Y-78550057D01*
X145071428Y-78550057D02*
X145119047Y-78645295D01*
X145119047Y-78645295D02*
X145166666Y-78835771D01*
X145166666Y-78835771D02*
X145166666Y-79073866D01*
X145166666Y-79073866D02*
X145119047Y-79264342D01*
X145119047Y-79264342D02*
X145071428Y-79359580D01*
X145071428Y-79359580D02*
X145023809Y-79407200D01*
X145023809Y-79407200D02*
X144928571Y-79454819D01*
X144928571Y-79454819D02*
X144833333Y-79454819D01*
X144833333Y-79454819D02*
X144738095Y-79407200D01*
X144738095Y-79407200D02*
X144690476Y-79359580D01*
X144690476Y-79359580D02*
X144642857Y-79264342D01*
X144642857Y-79264342D02*
X144595238Y-79073866D01*
X144595238Y-79073866D02*
X144595238Y-78835771D01*
X144595238Y-78835771D02*
X144642857Y-78645295D01*
X144642857Y-78645295D02*
X144690476Y-78550057D01*
X144690476Y-78550057D02*
X144738095Y-78502438D01*
X144738095Y-78502438D02*
X144833333Y-78454819D01*
X145547619Y-78550057D02*
X145595238Y-78502438D01*
X145595238Y-78502438D02*
X145690476Y-78454819D01*
X145690476Y-78454819D02*
X145928571Y-78454819D01*
X145928571Y-78454819D02*
X146023809Y-78502438D01*
X146023809Y-78502438D02*
X146071428Y-78550057D01*
X146071428Y-78550057D02*
X146119047Y-78645295D01*
X146119047Y-78645295D02*
X146119047Y-78740533D01*
X146119047Y-78740533D02*
X146071428Y-78883390D01*
X146071428Y-78883390D02*
X145500000Y-79454819D01*
X145500000Y-79454819D02*
X146119047Y-79454819D01*
X149857319Y-96660714D02*
X150571604Y-96660714D01*
X150571604Y-96660714D02*
X150714461Y-96708333D01*
X150714461Y-96708333D02*
X150809700Y-96803571D01*
X150809700Y-96803571D02*
X150857319Y-96946428D01*
X150857319Y-96946428D02*
X150857319Y-97041666D01*
X150857319Y-95660714D02*
X150857319Y-96232142D01*
X150857319Y-95946428D02*
X149857319Y-95946428D01*
X149857319Y-95946428D02*
X150000176Y-96041666D01*
X150000176Y-96041666D02*
X150095414Y-96136904D01*
X150095414Y-96136904D02*
X150143033Y-96232142D01*
X149857319Y-95041666D02*
X149857319Y-94946428D01*
X149857319Y-94946428D02*
X149904938Y-94851190D01*
X149904938Y-94851190D02*
X149952557Y-94803571D01*
X149952557Y-94803571D02*
X150047795Y-94755952D01*
X150047795Y-94755952D02*
X150238271Y-94708333D01*
X150238271Y-94708333D02*
X150476366Y-94708333D01*
X150476366Y-94708333D02*
X150666842Y-94755952D01*
X150666842Y-94755952D02*
X150762080Y-94803571D01*
X150762080Y-94803571D02*
X150809700Y-94851190D01*
X150809700Y-94851190D02*
X150857319Y-94946428D01*
X150857319Y-94946428D02*
X150857319Y-95041666D01*
X150857319Y-95041666D02*
X150809700Y-95136904D01*
X150809700Y-95136904D02*
X150762080Y-95184523D01*
X150762080Y-95184523D02*
X150666842Y-95232142D01*
X150666842Y-95232142D02*
X150476366Y-95279761D01*
X150476366Y-95279761D02*
X150238271Y-95279761D01*
X150238271Y-95279761D02*
X150047795Y-95232142D01*
X150047795Y-95232142D02*
X149952557Y-95184523D01*
X149952557Y-95184523D02*
X149904938Y-95136904D01*
X149904938Y-95136904D02*
X149857319Y-95041666D01*
X150857319Y-93755952D02*
X150857319Y-94327380D01*
X150857319Y-94041666D02*
X149857319Y-94041666D01*
X149857319Y-94041666D02*
X150000176Y-94136904D01*
X150000176Y-94136904D02*
X150095414Y-94232142D01*
X150095414Y-94232142D02*
X150143033Y-94327380D01*
D12*
X153380000Y-87096359D02*
X153380000Y-87403641D01*
X152620000Y-87096359D02*
X152620000Y-87403641D01*
D13*
X153050000Y-83910000D02*
G75*
G02*
X152950000Y-83910000I-50000J0D01*
G01*
X152950000Y-83910000D02*
G75*
G02*
X153050000Y-83910000I50000J0D01*
G01*
D12*
X142142500Y-90775000D02*
X140512500Y-90775000D01*
X142142500Y-99975000D02*
X140512500Y-99975000D01*
X151080000Y-85900000D02*
X151080000Y-84250000D01*
X151080000Y-80830000D02*
X151080000Y-73740000D01*
X148910000Y-85900000D02*
X151080000Y-85900000D01*
X148910000Y-85900000D02*
X148910000Y-87740000D01*
X140090000Y-85900000D02*
X137920000Y-85900000D01*
X137920000Y-85900000D02*
X137920000Y-84250000D01*
X137920000Y-80830000D02*
X137920000Y-73740000D01*
X148260000Y-99975000D02*
X149890000Y-99975000D01*
X148260000Y-90775000D02*
X149890000Y-90775000D01*
%LPC*%
D14*
X153000000Y-86740000D03*
X153000000Y-87760000D03*
D15*
X153000000Y-84515000D03*
X153000000Y-85485000D03*
D16*
X143135000Y-94875000D03*
D17*
X143135000Y-96895000D03*
D18*
X143135000Y-98125000D03*
D19*
X143135000Y-95875000D03*
D20*
X143135000Y-93855000D03*
D21*
X143135000Y-92625000D03*
D22*
X143080000Y-90250000D03*
D23*
X139500000Y-90250000D03*
D22*
X143080000Y-100500000D03*
D23*
X139500000Y-100500000D03*
D24*
X148000000Y-86240000D03*
X145500000Y-86240000D03*
X143500000Y-86240000D03*
X141000000Y-86240000D03*
D25*
X150900000Y-82540000D03*
X138100000Y-82540000D03*
D19*
X147267500Y-95875000D03*
D20*
X147267500Y-93855000D03*
D21*
X147267500Y-92625000D03*
D16*
X147267500Y-94875000D03*
D17*
X147267500Y-96895000D03*
D18*
X147267500Y-98125000D03*
D26*
X147322500Y-100500000D03*
D27*
X150902500Y-100500000D03*
D26*
X147322500Y-90250000D03*
D27*
X150902500Y-90250000D03*
%LPD*%
M02*
